<svg xmlns="http://www.w3.org/2000/svg"  viewBox="0 0 100 100" width="50px" height="50px" baseProfile="basic"><circle cx="50" cy="50" r="37" fill="#cee1f4"/><circle cx="13" cy="29" r="2" fill="#78a0cf"/><circle cx="77" cy="13" r="1" fill="#f1bc19"/><circle cx="83" cy="15" r="4" fill="#f1bc19"/><circle cx="87" cy="24" r="2" fill="#78a0cf"/><circle cx="81" cy="76" r="2" fill="#fbcd59"/><circle cx="15" cy="63" r="4" fill="#fbcd59"/><circle cx="25" cy="87" r="2" fill="#78a0cf"/><circle cx="18.5" cy="53.5" r="2.5" fill="#fff"/><circle cx="21" cy="67" r="1" fill="#f1bc19"/><circle cx="80" cy="34" r="1" fill="#fff"/><g><path fill="#685446" d="M50.501,76.257c-0.503,0-1.012-0.016-1.521-0.049c-11.871-0.77-21.645-11.096-22.248-23.509 c-0.422-8.679,3.41-16.81,10.252-21.75c0.187-0.135,0.403-0.206,0.627-0.206c0.345,0,0.673,0.165,0.902,0.452 c3.04,3.813,7.409,6,11.987,6c4.577,0,8.947-2.188,11.987-6.001c0.229-0.288,0.559-0.453,0.902-0.453 c0.223,0,0.438,0.071,0.624,0.205C70.455,35.597,74.3,43.244,74.3,51.402c0,6.645-2.479,12.891-6.98,17.586 c-4.493,4.688-10.466,7.269-16.816,7.269C50.502,76.257,50.502,76.257,50.501,76.257z"/><path fill="#472b29" d="M63.39,31.443c0.076,0,0.148,0.024,0.215,0.073c6.259,4.518,9.995,11.952,9.995,19.887 c0,13.319-10.363,24.155-23.1,24.155c-0.488,0-0.984-0.016-1.474-0.048c-11.522-0.747-21.008-10.781-21.595-22.844 c-0.411-8.442,3.313-16.348,9.962-21.149c0.068-0.049,0.141-0.074,0.218-0.074c0.13,0,0.259,0.069,0.354,0.188 c3.174,3.981,7.743,6.264,12.535,6.264c4.792,0,9.361-2.283,12.535-6.264C63.131,31.511,63.26,31.443,63.39,31.443 M63.39,30.043 c-0.541,0-1.077,0.25-1.449,0.716c-2.803,3.515-6.885,5.737-11.441,5.737c-4.556,0-8.638-2.222-11.441-5.737 c-0.372-0.466-0.908-0.715-1.449-0.715c-0.359,0-0.72,0.11-1.037,0.339c-6.711,4.845-10.992,13.091-10.541,22.352 c0.625,12.846,10.595,23.375,22.903,24.173c0.525,0.034,1.047,0.051,1.565,0.051c13.531,0,24.5-11.441,24.5-25.555 c0-8.717-4.187-16.411-10.576-21.023C64.108,30.152,63.748,30.043,63.39,30.043L63.39,30.043z"/><path fill="#ffd683" d="M49.978,45.292c-4.691-3.835-8.6-4.671-11.363-2.384c-4.136,3.423-6.669,8.621-6.329,14.393 c0.522,8.857,8.035,16.092,17.138,16.509c10.359,0.474,18.911-7.562,18.911-17.542c0-5.498-2.6-10.397-6.665-13.615 C58.908,40.467,54.67,41.457,49.978,45.292z"/><path fill="#472b29" d="M50.31,74.33c-0.302,0-0.604-0.007-0.908-0.021c-9.342-0.428-17.079-7.886-17.614-16.979 c-0.337-5.708,2.035-11.105,6.51-14.808c2.023-1.675,5.684-2.642,11.681,2.127c4.773-3.787,9.133-4.659,12.003-2.389 c4.355,3.448,6.854,8.553,6.854,14.006c0,4.892-1.975,9.473-5.561,12.898C59.768,72.515,55.193,74.33,50.31,74.33z M42.115,42.155 c-1.124,0-2.207,0.332-3.182,1.138c-4.226,3.497-6.467,8.592-6.148,13.979c0.506,8.589,7.824,15.634,16.661,16.039 c4.954,0.216,9.613-1.503,13.136-4.868c3.387-3.234,5.252-7.559,5.252-12.175c0-5.146-2.359-9.965-6.475-13.222 c-2.531-2.003-6.564-1.044-11.065,2.634c-0.184,0.15-0.449,0.15-0.633,0C47.486,43.901,44.693,42.155,42.115,42.155z"/><path fill="#472b29" d="M49.86,71.173c-3.378,0-6.714-0.981-8.721-3.17l0,0c-1.222-1.332-1.393-3.108-0.425-4.422 c0.949-1.288,3.079-2.138,6.209-0.657c1.835,0.868,4.646,0.795,6.832-0.178c3.155-1.401,5.284-0.324,6.148,1.026 c0.906,1.418,0.585,3.244-0.781,4.44C56.969,70.101,53.392,71.173,49.86,71.173z M41.876,67.327 c3.485,3.798,12.322,3.869,16.589,0.134c1.156-1.013,1.133-2.312,0.597-3.149c-0.648-1.017-2.323-1.797-4.899-0.651 c-2.436,1.082-5.587,1.149-7.666,0.168c-2.579-1.222-4.263-0.622-4.976,0.347C40.845,65.091,40.987,66.358,41.876,67.327 L41.876,67.327z"/><path fill="#472b29" d="M41.117,49c-2.405,0-4.365,2.078-4.637,4.745l4.116,2.427l-3.757,2.215 c0.104,0.453,0.28,1.101,0.418,1.491c1.688-0.56,4.544-1.352,7.67-0.207c0.552-1.439,0.881-3.244,0.881-5.305 C45.809,51.402,43.708,49,41.117,49z"/><path fill="#472b29" d="M36.426,60.526c-0.093,0-0.182-0.052-0.225-0.142c-0.061-0.124-0.009-0.273,0.115-0.333 c0.191-0.093,4.7-2.226,9.565-0.213c0.128,0.054,0.188,0.199,0.136,0.327c-0.054,0.129-0.202,0.187-0.327,0.136 c-4.649-1.929-9.11,0.178-9.156,0.199C36.5,60.519,36.463,60.526,36.426,60.526z"/><path fill="#472b29" d="M59.883,49c-2.405,0-4.365,2.078-4.637,4.745l4.116,2.427l-3.757,2.215 c0.104,0.453,0.28,1.101,0.418,1.491c1.688-0.56,4.544-1.352,7.67-0.207c0.552-1.439,0.881-3.244,0.881-5.305 C64.574,51.402,62.474,49,59.883,49z"/><path fill="#472b29" d="M55.191,60.526c-0.093,0-0.182-0.052-0.225-0.142c-0.061-0.124-0.009-0.273,0.115-0.333 c0.19-0.094,4.703-2.225,9.566-0.213c0.128,0.054,0.188,0.199,0.136,0.327c-0.054,0.129-0.201,0.187-0.327,0.136 c-4.649-1.929-9.111,0.179-9.157,0.199C55.266,60.519,55.229,60.526,55.191,60.526z"/><rect width=".5" height="6.552" x="49.207" y="64.233" fill="#472b29"/><rect width=".5" height="7.487" x="47.122" y="63.298" fill="#472b29"/><path fill="#472b29" d="M45.287,70.437c-0.138,0-0.25-0.112-0.25-0.25v-3.954c0-0.138,0.112-0.25,0.25-0.25 s0.25,0.112,0.25,0.25v3.954C45.537,70.324,45.425,70.437,45.287,70.437z"/><path fill="#472b29" d="M45.287,64.886c-0.138,0-0.25-0.112-0.25-0.25v-1.338c0-0.138,0.112-0.25,0.25-0.25 s0.25,0.112,0.25,0.25v1.338C45.537,64.773,45.425,64.886,45.287,64.886z"/><rect width=".5" height="6.728" x="42.952" y="62.361" fill="#472b29"/><rect width=".5" height="7.137" x="51.293" y="63.648" fill="#472b29"/><path fill="#472b29" d="M53.628,70.375c-0.138,0-0.25-0.112-0.25-0.25v-1.597c0-0.138,0.112-0.25,0.25-0.25 s0.25,0.112,0.25,0.25v1.597C53.878,70.263,53.766,70.375,53.628,70.375z"/><path fill="#472b29" d="M53.628,67.248c-0.138,0-0.25-0.112-0.25-0.25v-3.7c0-0.138,0.112-0.25,0.25-0.25 s0.25,0.112,0.25,0.25v3.7C53.878,67.136,53.766,67.248,53.628,67.248z"/><rect width=".5" height="7.488" x="55.463" y="62.361" fill="#472b29"/><rect width=".5" height="6.328" x="57.548" y="62.361" fill="#472b29"/><path fill="#472b29" d="M29.859,53.317c-0.117,0-0.222-0.082-0.245-0.201c-0.236-1.182-0.293-2.473-0.17-3.837 c0.013-0.137,0.111-0.235,0.271-0.227c0.138,0.013,0.239,0.134,0.227,0.271c-0.119,1.316-0.064,2.56,0.162,3.694 c0.027,0.135-0.061,0.267-0.196,0.294C29.892,53.315,29.875,53.317,29.859,53.317z"/><g><path fill="#472b29" d="M29.986,47.586c-0.017,0-0.033-0.001-0.05-0.005c-0.136-0.028-0.223-0.16-0.195-0.295 c0.449-2.188,1.311-4.5,2.492-6.685c0.065-0.122,0.216-0.167,0.339-0.101c0.121,0.065,0.166,0.217,0.101,0.338 c-1.158,2.144-2.003,4.408-2.441,6.548C30.207,47.505,30.103,47.586,29.986,47.586z"/></g><g><path fill="#472b29" d="M33.453,39.276c-0.047,0-0.094-0.013-0.136-0.04c-0.115-0.075-0.149-0.229-0.074-0.345 c1.373-2.132,2.879-3.732,4.028-4.282c0.106-0.052,0.234-0.02,0.307,0.074c2.242,2.947,5.414,3.693,5.445,3.701 c0.135,0.03,0.22,0.164,0.189,0.299c-0.03,0.133-0.161,0.217-0.299,0.189c-0.135-0.03-3.26-0.761-5.604-3.719 c-1.047,0.587-2.394,2.064-3.646,4.009C33.615,39.235,33.535,39.276,33.453,39.276z"/></g></g></svg>