<svg xmlns="http://www.w3.org/2000/svg"  viewBox="0 0 100 100" width="100px" height="100px"><path fill="#c7ede6" d="M88.704,55.929c0.3-0.616,0.566-1.264,0.796-1.943c2.633-7.77-1.349-17.078-9.733-19.325C78.86,23.278,70.86,15.469,61.826,14.136C51.485,12.611,42.011,19.18,38.86,29.621c-3.799-1.346-7.501-1.182-10.99,0.857c-1.583,0.732-3.031,1.812-4.33,3.233c-1.907,2.086-3.147,4.719-3.652,7.495c-0.748,0.118-1.483,0.236-2.176,0.484c-4.04,1.449-6.589,4.431-7.288,8.923c-0.435,2.797,0.443,5.587,0.933,6.714c1.935,4.455,6.422,6.98,10.981,6.312c0.227-0.033,0.557,0.069,0.752,0.233c0.241,7.12,3.698,13.417,8.884,17.014C40.295,86.659,51,84.88,57.754,76.966c2.894,2.96,6.338,4.398,10.384,3.876c4.023-0.519,7.147-2.739,9.426-6.349c1.053,0.283,2.051,0.691,3.083,0.804c4.042,0.442,7.324-1.165,9.732-4.8c0.922-1.391,1.793-3.194,1.793-6.354C92.174,60.886,90.88,57.919,88.704,55.929z"/><path fill="#fff" d="M18.369 47.965H8.338c-.276 0-.5-.224-.5-.5s.224-.5.5-.5h10.03c.276 0 .5.224.5.5S18.645 47.965 18.369 47.965zM21.249 47.965h-1.446c-.276 0-.5-.224-.5-.5s.224-.5.5-.5h1.446c.276 0 .5.224.5.5S21.526 47.965 21.249 47.965zM25.304 47.965h-2.546c-.276 0-.5-.224-.5-.5s.224-.5.5-.5h2.546c.276 0 .5.224.5.5S25.58 47.965 25.304 47.965zM25.304 49.83h-9.616c-.276 0-.5-.224-.5-.5s.224-.5.5-.5h9.616c.276 0 .5.224.5.5S25.58 49.83 25.304 49.83zM13.956 49.83h-.58c-.276 0-.5-.224-.5-.5s.224-.5.5-.5h.58c.276 0 .5.224.5.5S14.233 49.83 13.956 49.83zM11.579 49.83h-1.456c-.276 0-.5-.224-.5-.5s.224-.5.5-.5h1.456c.276 0 .5.224.5.5S11.856 49.83 11.579 49.83zM20.715 46.1h-5.027c-.276 0-.5-.224-.5-.5s.224-.5.5-.5h5.027c.276 0 .5.224.5.5S20.992 46.1 20.715 46.1zM20.715 44.235h-1.257c-.276 0-.5-.224-.5-.5s.224-.5.5-.5h1.257c.276 0 .5.224.5.5S20.992 44.235 20.715 44.235zM17.447 51.695h-1.759c-.276 0-.5-.224-.5-.5s.224-.5.5-.5h1.759c.276 0 .5.224.5.5S17.723 51.695 17.447 51.695zM74.394 25.644h-10.03c-.276 0-.5-.224-.5-.5s.224-.5.5-.5h10.03c.276 0 .5.224.5.5S74.671 25.644 74.394 25.644zM77.276 25.644H75.83c-.276 0-.5-.224-.5-.5s.224-.5.5-.5h1.446c.276 0 .5.224.5.5S77.552 25.644 77.276 25.644zM81.33 25.644h-2.546c-.276 0-.5-.224-.5-.5s.224-.5.5-.5h2.546c.276 0 .5.224.5.5S81.606 25.644 81.33 25.644zM81.33 27.509h-9.616c-.276 0-.5-.224-.5-.5s.224-.5.5-.5h9.616c.276 0 .5.224.5.5S81.606 27.509 81.33 27.509zM69.982 27.509h-.58c-.276 0-.5-.224-.5-.5s.224-.5.5-.5h.58c.276 0 .5.224.5.5S70.259 27.509 69.982 27.509zM67.605 27.509h-1.456c-.276 0-.5-.224-.5-.5s.224-.5.5-.5h1.456c.276 0 .5.224.5.5S67.882 27.509 67.605 27.509zM76.741 23.78h-5.027c-.276 0-.5-.224-.5-.5s.224-.5.5-.5h5.027c.276 0 .5.224.5.5S77.017 23.78 76.741 23.78zM76.741 21.914h-1.257c-.276 0-.5-.224-.5-.5s.224-.5.5-.5h1.257c.276 0 .5.224.5.5S77.017 21.914 76.741 21.914zM73.473 29.374h-1.759c-.276 0-.5-.224-.5-.5s.224-.5.5-.5h1.759c.276 0 .5.224.5.5S73.749 29.374 73.473 29.374z"/><path fill="#fdfcef" d="M74.965,48.798c0,0,10.616,0,10.681,0c2.452,0,4.439-1.987,4.439-4.439c0-2.139-1.513-3.924-3.527-4.344c0.023-0.187,0.039-0.377,0.039-0.57c0-2.539-2.058-4.598-4.597-4.598c-1.499,0-2.827,0.721-3.666,1.831c-0.215-2.826-2.739-5.007-5.693-4.646c-2.16,0.264-3.947,1.934-4.344,4.073c-0.127,0.686-0.114,1.352,0.013,1.977c-0.579-0.624-1.403-1.016-2.322-1.016c-1.68,0-3.052,1.308-3.16,2.961c-0.763-0.169-1.593-0.158-2.467,0.17c-1.671,0.627-2.861,2.2-2.93,3.983c-0.099,2.533,1.925,4.617,4.435,4.617c0.191,0,0.861,0,1.015,0h9.218"/><path fill="#472b29" d="M85.646,49.298H74.965c-0.276,0-0.5-0.224-0.5-0.5s0.224-0.5,0.5-0.5h10.681c2.172,0,3.939-1.767,3.939-3.939c0-1.855-1.316-3.477-3.129-3.855c-0.254-0.053-0.425-0.292-0.394-0.55c0.021-0.167,0.035-0.336,0.035-0.509c0-2.259-1.838-4.098-4.098-4.098c-1.292,0-2.483,0.595-3.267,1.633c-0.125,0.167-0.339,0.24-0.54,0.178c-0.199-0.059-0.342-0.234-0.357-0.442c-0.094-1.238-0.7-2.401-1.663-3.19c-0.973-0.798-2.207-1.15-3.471-0.997c-1.947,0.238-3.556,1.747-3.913,3.668c-0.112,0.601-0.108,1.201,0.011,1.786c0.045,0.22-0.062,0.442-0.261,0.545c-0.198,0.103-0.443,0.06-0.595-0.104c-0.513-0.552-1.208-0.856-1.956-0.856c-1.4,0-2.569,1.095-2.661,2.494c-0.01,0.146-0.082,0.28-0.199,0.367c-0.117,0.087-0.267,0.118-0.408,0.088c-0.754-0.166-1.468-0.117-2.183,0.15c-1.499,0.562-2.546,1.983-2.606,3.535c-0.042,1.083,0.347,2.109,1.096,2.889c0.75,0.78,1.758,1.209,2.839,1.209h10.233c0.276,0,0.5,0.224,0.5,0.5s-0.224,0.5-0.5,0.5H61.866c-1.355,0-2.62-0.539-3.56-1.516c-0.939-0.978-1.428-2.263-1.375-3.621c0.076-1.948,1.383-3.729,3.254-4.432c0.721-0.27,1.465-0.363,2.221-0.279c0.362-1.655,1.842-2.884,3.582-2.884c0.603,0,1.194,0.151,1.72,0.431c0.004-0.327,0.036-0.655,0.097-0.983c0.436-2.346,2.399-4.188,4.775-4.478c1.536-0.193,3.039,0.243,4.226,1.216c0.899,0.737,1.543,1.742,1.847,2.851c0.919-0.808,2.095-1.256,3.347-1.256c2.811,0,5.098,2.287,5.098,5.098c0,0.064-0.001,0.128-0.004,0.192c2.048,0.628,3.492,2.547,3.492,4.723C90.585,47.082,88.369,49.298,85.646,49.298z"/><path fill="#fdfcef" d="M72.392,39.019c-1.642-0.108-3.055,1.026-3.157,2.533c-0.013,0.187-0.004,0.371,0.023,0.55c-0.317-0.358-0.786-0.6-1.324-0.636c-0.985-0.065-1.836,0.586-1.959,1.471c-0.179-0.049-0.366-0.082-0.56-0.095c-1.437-0.094-2.674,0.898-2.762,2.216"/><path fill="#472b29" d="M62.654,45.309c-0.006,0-0.012,0-0.017,0c-0.138-0.009-0.242-0.128-0.233-0.266c0.099-1.453,1.446-2.543,3.028-2.449c0.117,0.008,0.235,0.022,0.353,0.044c0.26-0.878,1.158-1.492,2.166-1.42c0.371,0.024,0.728,0.141,1.034,0.332c0-0.005,0.001-0.009,0.001-0.014c0.11-1.641,1.646-2.868,3.423-2.765c0.138,0.009,0.242,0.128,0.233,0.266c-0.009,0.138-0.125,0.241-0.266,0.233c-1.513-0.103-2.799,0.933-2.891,2.3c-0.011,0.164-0.004,0.331,0.021,0.497c0.017,0.109-0.041,0.217-0.142,0.264c-0.099,0.047-0.219,0.023-0.293-0.061c-0.284-0.321-0.704-0.522-1.152-0.552c-0.852-0.056-1.59,0.496-1.695,1.256c-0.01,0.071-0.05,0.134-0.11,0.174c-0.061,0.04-0.134,0.052-0.204,0.033c-0.17-0.046-0.342-0.075-0.51-0.086c-1.298-0.083-2.417,0.805-2.497,1.983C62.894,45.208,62.785,45.309,62.654,45.309z"/><path fill="#fdfcef" d="M87.443,40.535c-1.543-0.727-3.327-0.213-3.985,1.15c-0.082,0.169-0.142,0.344-0.182,0.521"/><path fill="#472b29" d="M83.275,42.456c-0.018,0-0.037-0.002-0.056-0.006c-0.135-0.031-0.219-0.165-0.188-0.299c0.045-0.199,0.113-0.393,0.201-0.574c0.716-1.484,2.655-2.051,4.317-1.267c0.125,0.059,0.179,0.208,0.12,0.333c-0.059,0.125-0.208,0.178-0.333,0.12c-1.417-0.668-3.056-0.205-3.654,1.033c-0.072,0.148-0.127,0.305-0.164,0.468C83.493,42.377,83.39,42.456,83.275,42.456z"/><path fill="#006def" d="M65.26,70.226H39.538c-3.766,0-6.847-3.081-6.847-6.847V37.657c0-3.766,3.081-6.847,6.847-6.847H65.26c3.766,0,6.847,3.081,6.847,6.847v25.722C72.108,67.145,69.026,70.226,65.26,70.226z"/><path fill="#472b29" d="M65.26,70.926H39.538c-4.162,0-7.547-3.386-7.547-7.547V37.657c0-4.162,3.386-7.547,7.547-7.547H65.26c4.162,0,7.548,3.386,7.548,7.547v25.722C72.808,67.541,69.422,70.926,65.26,70.926z M39.538,31.51c-3.39,0-6.147,2.757-6.147,6.147v25.722c0,3.39,2.757,6.147,6.147,6.147H65.26c3.39,0,6.147-2.757,6.147-6.147V37.657c0-3.39-2.758-6.147-6.147-6.147H39.538z"/><path fill="#fdfcee" d="M63.743,67.411H41.055c-3.052,0-5.549-2.497-5.549-5.549V39.174c0-3.052,2.497-5.549,5.549-5.549h22.688c3.052,0,5.549,2.497,5.549,5.549v22.688C69.292,64.914,66.795,67.411,63.743,67.411z"/><path fill="#472b29" d="M64.158,67.761H40.64c-3.024,0-5.484-2.46-5.484-5.484V38.759c0-3.024,2.46-5.484,5.484-5.484h22.395c0.193,0,0.35,0.157,0.35,0.35s-0.157,0.35-0.35,0.35H40.64c-2.638,0-4.784,2.146-4.784,4.784v23.517c0,2.638,2.146,4.784,4.784,4.784h23.518c2.638,0,4.784-2.146,4.784-4.784v-13.01c0-0.193,0.157-0.35,0.35-0.35s0.35,0.157,0.35,0.35v13.01C69.642,65.301,67.182,67.761,64.158,67.761z"/><path fill="#472b29" d="M69.292 47.74c-.193 0-.35-.157-.35-.35v-2.503c0-.193.157-.35.35-.35s.35.157.35.35v2.503C69.642 47.583 69.485 47.74 69.292 47.74zM69.292 43.986c-.193 0-.35-.157-.35-.35v-1.251c0-.193.157-.35.35-.35s.35.157.35.35v1.251C69.642 43.829 69.485 43.986 69.292 43.986z"/><path fill="#127ad8" d="M61.494,52.268v6.075h-3.581l-0.05-6.023c0-1.525-0.694-2.609-2.063-2.609c-1.045,0-1.664,0.699-1.938,1.378c-0.098,0.241-0.127,0.581-0.127,0.92v6.334h-3.627c0,0,0.049-10.276,0-11.339h3.627v1.75c-0.008,0.013-0.016,0.027-0.025,0.04h0.025v-0.04c0.504-0.842,1.424-1.822,3.433-1.822C59.657,46.927,61.494,48.478,61.494,52.268z M45.988,41.657c-1.12,0-1.851,0.768-1.851,1.778c0,0.987,0.709,1.778,1.808,1.778h0.021c1.142,0,1.851-0.791,1.851-1.778C47.793,42.426,47.105,41.657,45.988,41.657z M44.187,58.343h3.581V47.004h-3.581V58.343z"/><path fill="#472b29" d="M61.494,58.693h-3.581c-0.192,0-0.349-0.155-0.35-0.347l-0.049-6.023c0-0.682-0.167-2.262-1.713-2.262c-1.033,0-1.473,0.811-1.613,1.159c-0.068,0.165-0.102,0.43-0.102,0.789v6.334c0,0.193-0.157,0.35-0.35,0.35h-3.627c-0.093,0-0.183-0.037-0.248-0.103c-0.066-0.066-0.103-0.156-0.102-0.249c0-0.103,0.048-10.28,0-11.322c-0.004-0.096,0.03-0.188,0.097-0.258c0.066-0.069,0.157-0.108,0.253-0.108h3.627c0.193,0,0.35,0.157,0.35,0.35v0.725c0.766-0.77,1.783-1.147,3.083-1.147c0.004,0,0.008,0,0.011,0c1.32,0,2.395,0.404,3.192,1.2c0.977,0.975,1.472,2.485,1.472,4.486v6.075C61.845,58.536,61.688,58.693,61.494,58.693z M58.261,57.993h2.884v-5.725c0-1.809-0.426-3.152-1.267-3.991c-0.662-0.661-1.57-0.996-2.698-0.996c-0.003,0-0.007,0-0.01,0c-1.889,0-2.681,0.912-3.111,1.616c-0.1,0.255-0.507,0.304-0.639,0.068c-0.052-0.093-0.068-0.203-0.033-0.299v-1.313h-2.918c0.03,1.875,0,8.947-0.007,10.639h2.925v-5.984c0-0.457,0.05-0.801,0.153-1.052c0.403-0.999,1.25-1.596,2.262-1.596c1.488,0,2.413,1.134,2.413,2.959L58.261,57.993z M47.768,58.693h-3.581c-0.193,0-0.35-0.157-0.35-0.35V47.004c0-0.193,0.157-0.35,0.35-0.35h3.581c0.193,0,0.35,0.157,0.35,0.35v11.339C48.118,58.536,47.961,58.693,47.768,58.693z M44.537,57.993h2.88V47.354h-2.88V57.993z M45.967,45.563c-1.272,0-2.18-0.895-2.18-2.128s0.926-2.128,2.201-2.128c1.252,0,2.149,0.872,2.18,2.119C48.168,44.668,47.242,45.563,45.967,45.563z M45.988,42.008c-0.897,0-1.5,0.574-1.5,1.428c0,0.841,0.6,1.428,1.458,1.428c0.919,0,1.522-0.574,1.522-1.428C47.446,42.572,46.866,42.008,45.988,42.008z"/><path fill="#fdfcef" d="M42.126,72.739c1.71,0,3.194,0,3.215,0c1.916,0,3.469-1.52,3.469-3.396c0-1.636-1.182-3.001-2.756-3.323c0.018-0.143,0.031-0.288,0.031-0.436c0-1.942-1.609-3.517-3.593-3.517c-1.172,0-2.209,0.551-2.865,1.401c-0.168-2.162-2.141-3.83-4.45-3.554c-1.688,0.202-3.084,1.479-3.395,3.116c-0.1,0.525-0.089,1.034,0.01,1.512c-0.453-0.477-1.097-0.777-1.814-0.777c-1.313,0-2.385,1.001-2.47,2.265c-0.596-0.129-1.245-0.121-1.928,0.13c-1.306,0.48-2.236,1.683-2.29,3.047c-0.077,1.937,1.504,3.532,3.467,3.532c0.149,0,0.673,0,0.794,0h7.204 M36.245,72.739h0.327"/><path fill="#472b29" d="M45.341,73.239h-3.215c-0.276,0-0.5-0.224-0.5-0.5s0.224-0.5,0.5-0.5h3.215c1.637,0,2.969-1.299,2.969-2.896c0-1.362-0.991-2.554-2.356-2.833c-0.256-0.052-0.429-0.293-0.396-0.552c0.016-0.123,0.026-0.247,0.026-0.374c0-1.664-1.387-3.017-3.093-3.017c-0.978,0-1.877,0.439-2.47,1.206c-0.126,0.163-0.34,0.232-0.539,0.173c-0.198-0.059-0.339-0.234-0.355-0.44c-0.071-0.913-0.507-1.741-1.227-2.332c-0.743-0.609-1.687-0.882-2.665-0.764c-1.475,0.176-2.694,1.292-2.963,2.712c-0.084,0.443-0.082,0.886,0.008,1.318c0.045,0.219-0.06,0.441-0.258,0.545c-0.197,0.103-0.44,0.063-0.594-0.1c-0.38-0.4-0.896-0.621-1.452-0.621c-1.038,0-1.903,0.79-1.971,1.799c-0.01,0.145-0.082,0.278-0.198,0.366s-0.263,0.12-0.407,0.089c-0.569-0.123-1.109-0.087-1.649,0.11c-1.128,0.415-1.917,1.459-1.963,2.598c-0.031,0.782,0.253,1.526,0.8,2.095c0.568,0.591,1.337,0.916,2.167,0.916h7.998c0.276,0,0.5,0.224,0.5,0.5s-0.224,0.5-0.5,0.5h-7.998c-1.088,0-2.141-0.446-2.888-1.223c-0.737-0.767-1.12-1.771-1.078-2.828c0.062-1.539,1.114-2.944,2.618-3.497c0.549-0.201,1.117-0.276,1.688-0.228c0.332-1.268,1.507-2.198,2.882-2.198c0.431,0,0.854,0.094,1.241,0.269c0.011-0.199,0.035-0.398,0.073-0.597c0.35-1.844,1.924-3.291,3.827-3.519c1.245-0.149,2.462,0.2,3.417,0.983c0.668,0.548,1.147,1.255,1.399,2.048c0.717-0.568,1.61-0.882,2.557-0.882c2.257,0,4.093,1.802,4.093,4.017c0,0.02,0,0.04,0,0.06c1.604,0.52,2.727,2.012,2.727,3.7C49.31,71.491,47.53,73.239,45.341,73.239z M36.571,73.239h-0.327c-0.276,0-0.5-0.224-0.5-0.5s0.224-0.5,0.5-0.5h0.327c0.276,0,0.5,0.224,0.5,0.5S36.848,73.239,36.571,73.239z"/><path fill="#472b29" d="M43.79 67.947c-.018 0-.036-.002-.055-.006-.135-.03-.219-.164-.189-.299.034-.152.086-.3.156-.44.554-1.123 2.084-1.538 3.41-.925.125.058.18.207.122.332-.058.126-.207.179-.332.122-1.081-.499-2.316-.189-2.752.692-.051.104-.09.214-.116.328C44.008 67.867 43.905 67.947 43.79 67.947zM39.106 73.239H38.1c-.276 0-.5-.224-.5-.5s.224-.5.5-.5h1.005c.276 0 .5.224.5.5S39.382 73.239 39.106 73.239z"/></svg>