<svg xmlns="http://www.w3.org/2000/svg"  viewBox="0 0 100 100" width="100px" height="100px"><path fill="#c7ede6" d="M87.215,56.71C88.35,54.555,89,52.105,89,49.5c0-6.621-4.159-12.257-10.001-14.478	C78.999,35.015,79,35.008,79,35c0-11.598-9.402-21-21-21c-9.784,0-17.981,6.701-20.313,15.757C36.211,29.272,34.638,29,33,29	c-7.692,0-14.023,5.793-14.89,13.252C12.906,43.353,9,47.969,9,53.5C9,59.851,14.149,65,20.5,65c0.177,0,0.352-0.012,0.526-0.022	C21.022,65.153,21,65.324,21,65.5C21,76.822,30.178,86,41.5,86c6.437,0,12.175-2.972,15.934-7.614C59.612,80.611,62.64,82,66,82	c4.65,0,8.674-2.65,10.666-6.518C77.718,75.817,78.837,76,80,76c6.075,0,11-4.925,11-11C91,61.689,89.53,58.727,87.215,56.71z"/><path fill="#fdfcef" d="M76.5,61h3.125v-0.5c1.533,0,4.023,0,5.375,0c2.485,0,4.5-2.015,4.5-4.5	c0-2.333-1.782-4.229-4.055-4.455C85.467,51.364,85.5,51.187,85.5,51c0-2.485-2.015-4.5-4.5-4.5c-1.438,0-2.703,0.686-3.527,1.736	C77.333,45.6,75.171,43.5,72.5,43.5c-2.761,0-5,2.239-5,5c0,0.446,0.077,0.87,0.187,1.282C67.045,49.005,66.086,48.5,65,48.5	c-1.781,0-3.234,1.335-3.455,3.055C61.364,51.533,61.187,51.5,61,51.5c-2.485,0-4.5,2.015-4.5,4.5s2.015,4.5,4.5,4.5s9.5,0,9.5,0h6	V61z"/><path fill="#472b29" d="M72.5,43c-3.033,0-5.5,2.467-5.5,5.5c0,0.016,0,0.031,0,0.047C66.398,48.192,65.71,48,65,48	c-1.831,0-3.411,1.261-3.858,3.005C61.095,51.002,61.048,51,61,51c-2.757,0-5,2.243-5,5s2.243,5,5,5h15.5c0.276,0,0.5-0.224,0.5-0.5	S76.776,60,76.5,60H61c-2.206,0-4-1.794-4-4s1.794-4,4-4c0.117,0,0.23,0.017,0.343,0.032l0.141,0.019	c0.021,0.003,0.041,0.004,0.062,0.004c0.246,0,0.462-0.185,0.495-0.437C62.232,50.125,63.504,49,65,49	c0.885,0,1.723,0.401,2.301,1.1c0.098,0.118,0.241,0.182,0.386,0.182c0.078,0,0.156-0.018,0.228-0.056	c0.209-0.107,0.314-0.346,0.254-0.573C68.054,49.218,68,48.852,68,48.5c0-2.481,2.019-4.5,4.5-4.5c2.381,0,4.347,1.872,4.474,4.263	c0.011,0.208,0.15,0.387,0.349,0.45c0.05,0.016,0.101,0.024,0.152,0.024c0.15,0,0.296-0.069,0.392-0.192	C78.638,47.563,79.779,47,81,47c2.206,0,4,1.794,4,4c0,0.117-0.017,0.23-0.032,0.343l-0.019,0.141	c-0.016,0.134,0.022,0.268,0.106,0.373s0.207,0.172,0.34,0.185C87.451,52.247,89,53.949,89,56c0,2.206-1.794,4-4,4h-5.5	c-0.276,0-0.5,0.224-0.5,0.5s0.224,0.5,0.5,0.5H85c2.757,0,5-2.243,5-5c0-2.397-1.689-4.413-4.003-4.877	C85.999,51.082,86,51.041,86,51c0-2.757-2.243-5-5-5c-1.176,0-2.293,0.416-3.183,1.164C77.219,44.76,75.055,43,72.5,43L72.5,43z"/><path fill="#472b29" d="M71,50c-1.403,0-2.609,0.999-2.913,2.341C67.72,52.119,67.301,52,66.875,52	c-1.202,0-2.198,0.897-2.353,2.068C64.319,54.022,64.126,54,63.937,54c-1.529,0-2.811,1.2-2.918,2.732	C61.01,56.87,61.114,56.99,61.251,57c0.006,0,0.012,0,0.018,0c0.13,0,0.24-0.101,0.249-0.232c0.089-1.271,1.151-2.268,2.419-2.268	c0.229,0,0.47,0.042,0.738,0.127c0.022,0.007,0.045,0.01,0.067,0.01c0.055,0,0.11-0.02,0.156-0.054	C64.962,54.537,65,54.455,65,54.375c0-1.034,0.841-1.875,1.875-1.875c0.447,0,0.885,0.168,1.231,0.473	c0.047,0.041,0.106,0.063,0.165,0.063c0.032,0,0.063-0.006,0.093-0.019c0.088-0.035,0.148-0.117,0.155-0.212	C68.623,51.512,69.712,50.5,71,50.5c0.208,0,0.425,0.034,0.682,0.107c0.023,0.007,0.047,0.01,0.07,0.01	c0.109,0,0.207-0.073,0.239-0.182c0.038-0.133-0.039-0.271-0.172-0.309C71.517,50.04,71.256,50,71,50L71,50z M84.883,51.5	c-1.326,0-2.508,0.897-2.874,2.182c-0.038,0.133,0.039,0.271,0.172,0.309C82.205,53.997,82.228,54,82.25,54	c0.109,0,0.209-0.072,0.24-0.182C82.795,52.748,83.779,52,84.883,52c0.117,0,0.23,0.014,0.342,0.029	c0.012,0.002,0.023,0.003,0.035,0.003c0.121,0,0.229-0.092,0.246-0.217c0.019-0.137-0.077-0.263-0.214-0.281	C85.158,51.516,85.022,51.5,84.883,51.5L84.883,51.5z"/><path fill="#fff" d="M15.5,51h-10C5.224,51,5,50.776,5,50.5S5.224,50,5.5,50h10c0.276,0,0.5,0.224,0.5,0.5	S15.777,51,15.5,51z M18.5,51h-1c-0.276,0-0.5-0.224-0.5-0.5s0.224-0.5,0.5-0.5h1c0.276,0,0.5,0.224,0.5,0.5S18.777,51,18.5,51z M23.491,53H14.5c-0.276,0-0.5-0.224-0.5-0.5s0.224-0.5,0.5-0.5h8.991c0.276,0,0.5,0.224,0.5,0.5S23.767,53,23.491,53z M12.5,53h-1	c-0.276,0-0.5-0.224-0.5-0.5s0.224-0.5,0.5-0.5h1c0.276,0,0.5,0.224,0.5,0.5S12.777,53,12.5,53z M9.5,53h-2	C7.224,53,7,52.776,7,52.5S7.224,52,7.5,52h2c0.276,0,0.5,0.224,0.5,0.5S9.777,53,9.5,53z M15.5,55h-2c-0.276,0-0.5-0.224-0.5-0.5	s0.224-0.5,0.5-0.5h2c0.276,0,0.5,0.224,0.5,0.5S15.776,55,15.5,55z M18.5,46c-0.177,0-0.823,0-1,0c-0.276,0-0.5,0.224-0.5,0.5	s0.224,0.5,0.5,0.5c0.177,0,0.823,0,1,0c0.276,0,0.5-0.224,0.5-0.5S18.776,46,18.5,46z M18.5,48c-0.177,0-4.823,0-5,0	c-0.276,0-0.5,0.224-0.5,0.5s0.224,0.5,0.5,0.5c0.177,0,4.823,0,5,0c0.276,0,0.5-0.224,0.5-0.5S18.776,48,18.5,48z M23.5,50	c-0.177,0-2.823,0-3,0c-0.276,0-0.5,0.224-0.5,0.5s0.224,0.5,0.5,0.5c0.177,0,2.823,0,3,0c0.276,0,0.5-0.224,0.5-0.5	S23.776,50,23.5,50z"/><path fill="#fff" d="M72.5,24h-10c-0.276,0-0.5-0.224-0.5-0.5s0.224-0.5,0.5-0.5h10c0.276,0,0.5,0.224,0.5,0.5 S72.776,24,72.5,24z M76.5,24h-2c-0.276,0-0.5-0.224-0.5-0.5s0.224-0.5,0.5-0.5h2c0.276,0,0.5,0.224,0.5,0.5S76.776,24,76.5,24z M81.5,26h-10c-0.276,0-0.5-0.224-0.5-0.5s0.224-0.5,0.5-0.5h10c0.276,0,0.5,0.224,0.5,0.5S81.777,26,81.5,26z M69.5,26h-1 c-0.276,0-0.5-0.224-0.5-0.5s0.224-0.5,0.5-0.5h1c0.276,0,0.5,0.224,0.5,0.5S69.776,26,69.5,26z M66.47,26H64.5 c-0.276,0-0.5-0.224-0.5-0.5s0.224-0.5,0.5-0.5h1.97c0.276,0,0.5,0.224,0.5,0.5S66.746,26,66.47,26z M75.5,22h-5 c-0.276,0-0.5-0.224-0.5-0.5s0.224-0.5,0.5-0.5h5c0.276,0,0.5,0.224,0.5,0.5S75.777,22,75.5,22z M72.5,28h-2 c-0.276,0-0.5-0.224-0.5-0.5s0.224-0.5,0.5-0.5h2c0.276,0,0.5,0.224,0.5,0.5S72.776,28,72.5,28z"/><path fill="#78a0cf" d="M52,27c-12.703,0-23,10.297-23,23s10.297,23,23,23s23-10.297,23-23S64.703,27,52,27z"/><path fill="#c0d078" d="M51,26.625c-0.125,0.5-0.75,1.25-0.75,1.875S51.61,28.512,52,29c0.5,0.625,0.5,2.5,0.25,4.375	c-0.269,2.017-1.25,4.375,0,4.375s7.375-4.75,8-9.25C57.972,27.224,54.833,26.644,51,26.625z"/><path fill="#c0d078" d="M67.5,32.625c-1.125,0-4.375,4-4.875,5.25s2.125,0.75,2.125,1.5s-3.75,3.875-4.125,4.25	s0.097,1.45-0.375,1.75c-1.375,0.875-1.875,1-1.875,2.125s-3.125,6-3.125,8s1.375,2.75,3.25,2.75s2.875-0.25,3.75,0.5	S65,66.625,65.5,68.5C77.125,59.625,78,42,67.5,32.625z"/><path fill="#c0d078" d="M36.5,32.5c2-0.375,7-1,8.375-0.125s3.569,3.201,2.75,3.875C45.5,38,44.25,34.75,43,34.75	c-3.625,0-5.25,5.75-3,5.875s4.875-2.5,6.5-1.25s1.75,2.25,1.75,3.125s-2.125,3-3.75,2.875s-4.875,3-5,5s0.25,4-0.5,4	s-0.496-2.632-1.5-3.25c-1.625-1-3.974-0.497-3.875,1.375C33.75,54.875,35.25,53.25,36,54s0.25,2.375,1,3	c-2.5-0.875-6.25-2.375-7.875-6C28.349,44.217,30.865,38.061,36.5,32.5z"/><path fill="#c0d078" d="M40.75,70c0.25-1.5-0.375-3.75-1.375-4.875S38.125,61,38.25,60s-0.125-2.25-1.25-3	c2,0.25,6.125,0.125,7,0.25s1.75,0.625,1.75,1.625s1.625,1.75,2.625,2.125s3.375,0.25,3.375,1.5s-0.625,3.875-2,5	c-1.428,1.169-3.5,2.5-4.125,4.625L40.75,70z"/><path fill="#472b29" d="M67.981,65.98c-8.812,8.812-23.15,8.812-31.961,0.001c-8.812-8.812-8.812-23.15,0-31.962	s23.149-8.811,31.961,0S76.793,57.169,67.981,65.98 M68.971,66.97c9.358-9.358,9.357-24.583,0-33.941	c-9.358-9.358-24.583-9.358-33.941,0s-9.357,24.585,0,33.942S59.613,76.328,68.971,66.97L68.971,66.97z"/><path fill="#472b29" d="M52.25,38c-0.282,0-0.501-0.095-0.652-0.282c-0.399-0.497-0.183-1.485,0.091-2.735	c0.119-0.543,0.242-1.104,0.313-1.641c0.273-2.051,0.196-3.694-0.198-4.186c-0.104-0.132-0.464-0.116-0.753-0.107	c-0.359,0.011-0.695,0.026-0.901-0.172C50.082,28.811,50,28.691,50,28.5c0-0.44,0.248-0.9,0.466-1.306	c0.128-0.238,0.25-0.463,0.291-0.63l0.485,0.121c-0.057,0.229-0.193,0.479-0.336,0.746c-0.19,0.354-0.406,0.754-0.406,1.068	c0.058,0.067,0.355,0.058,0.532,0.049c0.424-0.013,0.9-0.033,1.163,0.295c0.705,0.881,0.446,3.485,0.303,4.564	c-0.075,0.557-0.2,1.128-0.321,1.681c-0.216,0.985-0.439,2.005-0.189,2.315c0.033,0.041,0.096,0.096,0.262,0.096	c1.099,0,7.141-4.63,7.752-9.034l0.495,0.068C59.868,33.07,53.675,38,52.25,38z"/><path fill="#472b29" d="M65.5,68.75c-0.111,0-0.212-0.074-0.242-0.186l-0.052-0.195c-1.927-7.235-2.76-9.121-3.119-9.43	c-0.61-0.523-1.311-0.503-2.468-0.462c-0.336,0.011-0.707,0.022-1.12,0.022c-2.257,0-3.5-1.065-3.5-3c0-0.138,0.112-0.25,0.25-0.25	s0.25,0.112,0.25,0.25c0,1.659,1.009,2.5,3,2.5c0.407,0,0.772-0.012,1.103-0.022c1.237-0.039,2.052-0.067,2.81,0.583	c0.618,0.529,1.66,3.605,3.277,9.681l0.052,0.194c0.036,0.134-0.044,0.271-0.177,0.306C65.543,68.747,65.521,68.75,65.5,68.75z"/><path fill="#472b29" d="M55.715,53.875c-0.03,0-0.06-0.005-0.089-0.017c-0.129-0.049-0.193-0.193-0.144-0.322	c0.381-0.997,0.942-2.142,1.438-3.151c0.262-0.534,0.51-1.041,0.714-1.488c0.058-0.126,0.207-0.181,0.332-0.124	c0.125,0.058,0.181,0.206,0.124,0.331c-0.206,0.451-0.457,0.963-0.721,1.501c-0.49,1.001-1.046,2.135-1.419,3.109	C55.91,53.813,55.815,53.875,55.715,53.875z"/><path fill="#472b29" d="M58.375,47.75c-0.138,0-0.25-0.112-0.25-0.25c0-1.107,0.491-1.409,1.469-2.011	c0.158-0.097,0.332-0.204,0.522-0.325c0.128-0.081,0.116-0.401,0.106-0.685c-0.014-0.382-0.028-0.777,0.227-1.031	c0.075-0.075,0.281-0.257,0.565-0.508c2.297-2.026,3.471-3.226,3.487-3.566c0-0.113-0.531-0.215-0.787-0.265	c-0.541-0.104-1.1-0.211-1.318-0.61c-0.11-0.203-0.111-0.444-0.002-0.717c0.499-1.248,3.798-5.407,5.107-5.407	c0.138,0,0.25,0.112,0.25,0.25s-0.112,0.25-0.25,0.25c-0.931,0-4.123,3.792-4.643,5.093c-0.051,0.128-0.059,0.226-0.023,0.291	c0.105,0.192,0.587,0.285,0.974,0.359C64.367,38.727,65,38.848,65,39.375c0,0.522-0.991,1.59-3.656,3.94	c-0.272,0.24-0.47,0.415-0.542,0.486c-0.101,0.101-0.09,0.397-0.08,0.66c0.015,0.417,0.032,0.89-0.337,1.124	c-0.193,0.123-0.369,0.231-0.529,0.329c-0.97,0.597-1.23,0.757-1.23,1.585C58.625,47.638,58.513,47.75,58.375,47.75z"/><path fill="#472b29" d="M37,57.25c-0.027,0-0.055-0.005-0.083-0.014c-3.091-1.082-6.462-2.657-8.021-6.134	c-0.057-0.126,0-0.274,0.126-0.331c0.125-0.056,0.273,0,0.33,0.126c1.372,3.061,4.268,4.586,7.064,5.627	c-0.095-0.298-0.131-0.632-0.167-0.959c-0.06-0.555-0.116-1.078-0.427-1.389c-0.18-0.181-0.437-0.162-0.833-0.107	c-0.373,0.049-0.795,0.105-1.131-0.173c-0.292-0.243-0.446-0.683-0.483-1.384c-0.041-0.769,0.29-1.402,0.931-1.782	c0.907-0.541,2.274-0.466,3.325,0.182c0.613,0.377,0.806,1.294,0.977,2.102c0.082,0.389,0.234,1.111,0.392,1.111	c0.033,0,0.047-0.009,0.062-0.024c0.194-0.197,0.181-1.063,0.167-1.9c-0.009-0.563-0.02-1.203,0.021-1.841	c0.009-0.139,0.13-0.258,0.265-0.233c0.138,0.008,0.243,0.127,0.234,0.265c-0.039,0.618-0.029,1.247-0.02,1.802	c0.018,1.11,0.03,1.912-0.311,2.259c-0.112,0.114-0.256,0.174-0.419,0.174c-0.563,0-0.711-0.698-0.881-1.508	c-0.15-0.71-0.32-1.515-0.75-1.779c-0.885-0.544-2.066-0.62-2.808-0.178c-0.335,0.198-0.726,0.59-0.687,1.327	c0.028,0.536,0.13,0.881,0.304,1.024c0.167,0.139,0.435,0.104,0.746,0.062c0.393-0.052,0.885-0.118,1.253,0.25	c0.436,0.436,0.504,1.072,0.571,1.688c0.058,0.538,0.113,1.047,0.413,1.296c0.093,0.078,0.117,0.211,0.057,0.315	C37.172,57.203,37.088,57.25,37,57.25z"/><path fill="#472b29" d="M40.095,49c-0.044,0-0.089-0.012-0.129-0.036c-0.119-0.071-0.156-0.225-0.085-0.343	c1.047-1.738,3.273-3.591,4.638-3.495c0.694,0.055,1.604-0.366,2.438-1.122c0.101-0.093,0.26-0.086,0.353,0.018	c0.092,0.103,0.084,0.261-0.018,0.354c-0.935,0.846-1.987,1.314-2.812,1.249c-1.081-0.075-3.132,1.531-4.172,3.255	C40.262,48.957,40.179,49,40.095,49z"/><path fill="#472b29" d="M48.25,42.75c-0.138,0-0.25-0.112-0.25-0.25c0-0.838-0.127-1.754-1.652-2.927	c-0.81-0.625-1.996-0.104-3.251,0.445c-1.025,0.449-2.083,0.912-3.11,0.856c-0.823-0.046-1.296-0.708-1.267-1.771	C38.773,37.181,40.427,34.5,43,34.5c0.546,0,1.037,0.457,1.555,0.94c0.882,0.821,1.715,1.6,2.911,0.616	c0.044-0.036,0.095-0.098,0.086-0.245c-0.048-0.791-1.612-2.463-2.812-3.226c-1.262-0.804-6.067-0.24-8.195,0.16	c-0.135,0.025-0.266-0.064-0.292-0.2s0.064-0.267,0.2-0.292c1.868-0.35,7.047-1.049,8.555-0.09c1.197,0.762,2.977,2.55,3.042,3.617	c0.021,0.348-0.134,0.552-0.268,0.662c-1.532,1.26-2.709,0.164-3.569-0.638C43.77,35.392,43.35,35,43,35	c-2.238,0-3.734,2.438-3.78,4.117c-0.013,0.452,0.074,1.218,0.794,1.258c0.906,0.053,1.911-0.389,2.882-0.814	c1.332-0.585,2.71-1.188,3.756-0.384C48.357,40.488,48.5,41.58,48.5,42.5C48.5,42.638,48.388,42.75,48.25,42.75z"/><path fill="#472b29" d="M45.625,72.375c-0.023,0-0.047-0.003-0.07-0.01c-0.133-0.039-0.208-0.179-0.169-0.311	c0.553-1.882,2.203-3.173,3.529-4.21c0.236-0.185,0.464-0.363,0.678-0.538c1.229-1.006,1.908-3.48,1.908-4.807	c0-0.624-0.881-0.817-2.034-1.007c-0.444-0.072-0.864-0.142-1.179-0.259c-1.849-0.693-2.787-1.487-2.787-2.359	c0-1.074-1.175-1.326-1.535-1.378c-0.347-0.049-1.278-0.058-2.355-0.068c-1.238-0.012-2.719-0.025-3.867-0.107	c0.609,0.697,0.887,1.662,0.756,2.71c-0.125,0.999,0.147,3.896,1.064,4.928c1.042,1.172,1.698,3.499,1.435,5.082	c-0.022,0.136-0.154,0.224-0.288,0.206c-0.136-0.023-0.229-0.152-0.206-0.288c0.238-1.431-0.376-3.611-1.315-4.668	c-1.071-1.205-1.317-4.276-1.186-5.322c0.069-0.555,0.097-1.936-1.141-2.761c-0.097-0.064-0.136-0.187-0.096-0.295	s0.145-0.172,0.266-0.161c1.155,0.145,3.056,0.162,4.583,0.177c1.141,0.011,2.041,0.02,2.421,0.074	C44.985,57.139,46,57.701,46,58.875c0,0.615,0.897,1.304,2.463,1.891c0.268,0.101,0.665,0.166,1.084,0.234	C50.64,61.179,52,61.401,52,62.5c0,1.214-0.614,3.984-2.092,5.193c-0.216,0.177-0.447,0.358-0.686,0.545	c-1.335,1.045-2.849,2.229-3.357,3.957C45.833,72.305,45.733,72.375,45.625,72.375z"/><path fill="#fdfcef" d="M36.5,73.5c0,0,1.567,0,3.5,0s3.5-1.567,3.5-3.5c0-1.781-1.335-3.234-3.055-3.455 C40.473,66.366,40.5,66.187,40.5,66c0-1.933-1.567-3.5-3.5-3.5c-1.032,0-1.95,0.455-2.59,1.165 c-0.384-1.808-1.987-3.165-3.91-3.165c-2.209,0-4,1.791-4,4c0,0.191,0.03,0.374,0.056,0.558C26.128,64.714,25.592,64.5,25,64.5 c-1.228,0-2.245,0.887-2.455,2.055C22.366,66.527,22.187,66.5,22,66.5c-1.933,0-3.5,1.567-3.5,3.5s1.567,3.5,3.5,3.5s7.5,0,7.5,0 V74h7V73.5z"/><path fill="#472b29" d="M38.25,69C38.112,69,38,68.888,38,68.75c0-1.223,0.995-2.218,2.218-2.218 c0.034,0.009,0.737-0.001,1.244,0.136c0.133,0.036,0.212,0.173,0.176,0.306c-0.036,0.134-0.173,0.213-0.306,0.176 c-0.444-0.12-1.1-0.12-1.113-0.118c-0.948,0-1.719,0.771-1.719,1.718C38.5,68.888,38.388,69,38.25,69z M31.5,73 c-0.276,0-0.5,0.224-0.5,0.5s0.224,0.5,0.5,0.5s0.5-0.224,0.5-0.5S31.776,73,31.5,73z"/><path fill="#472b29" d="M40,74h-3.5c-0.276,0-0.5-0.224-0.5-0.5s0.224-0.5,0.5-0.5H40c1.654,0,3-1.346,3-3 c0-1.496-1.125-2.768-2.618-2.959c-0.134-0.018-0.255-0.088-0.336-0.196s-0.115-0.244-0.094-0.377C39.975,66.314,40,66.16,40,66 c0-1.654-1.346-3-3-3c-0.85,0-1.638,0.355-2.219,1c-0.125,0.139-0.321,0.198-0.5,0.148c-0.182-0.049-0.321-0.195-0.36-0.379 C33.58,62.165,32.141,61,30.5,61c-1.93,0-3.5,1.57-3.5,3.5c0,0.143,0.021,0.28,0.041,0.418c0.029,0.203-0.063,0.438-0.242,0.54 s-0.396,0.118-0.556-0.01C25.878,65.155,25.449,65,25,65c-0.966,0-1.792,0.691-1.963,1.644c-0.048,0.267-0.296,0.446-0.569,0.405 C22.314,67.025,22.16,67,22,67c-1.654,0-3,1.346-3,3s1.346,3,3,3h7.5c0.276,0,0.5,0.224,0.5,0.5S29.776,74,29.5,74H22 c-2.206,0-4-1.794-4-4s1.794-4,4-4c0.059,0,0.116,0.002,0.174,0.006C22.588,64.82,23.711,64,25,64c0.349,0,0.689,0.061,1.011,0.18 C26.176,61.847,28.126,60,30.5,60c1.831,0,3.466,1.127,4.153,2.774C35.333,62.276,36.155,62,37,62c2.206,0,4,1.794,4,4 c0,0.048-0.001,0.095-0.004,0.142C42.739,66.59,44,68.169,44,70C44,72.206,42.206,74,40,74z"/><path fill="#472b29" d="M34.5,73c-0.159,0-0.841,0-1,0c-0.276,0-0.5,0.224-0.5,0.5s0.224,0.5,0.5,0.5c0.159,0,0.841,0,1,0 c0.276,0,0.5-0.224,0.5-0.5S34.776,73,34.5,73z"/></svg>