<svg xmlns="http://www.w3.org/2000/svg"  viewBox="0 0 100 100" width="100px" height="100px"><path fill="#c8ede6" d="M87.234,55.551c0.3-0.616,0.566-1.264,0.796-1.943c2.633-7.77-1.349-17.078-9.733-19.325 C77.391,22.9,69.391,15.09,60.356,13.758c-10.341-1.525-19.814,5.044-22.966,15.485c-3.799-1.346-7.501-1.182-10.99,0.857 c-1.583,0.732-3.031,1.812-4.33,3.233c-1.907,2.086-3.147,4.719-3.652,7.495c-0.748,0.118-1.483,0.236-2.176,0.484 c-4.04,1.449-6.589,4.431-7.288,8.923c-0.435,2.797,0.443,5.587,0.933,6.714c1.935,4.455,6.422,6.98,10.981,6.312 c0.227-0.033,0.557,0.069,0.752,0.233c0.241,7.12,3.698,13.417,8.884,17.014c8.321,5.772,19.027,3.994,25.781-3.921 c2.894,2.96,6.338,4.398,10.384,3.876c4.023-0.519,7.147-2.739,9.426-6.349c1.053,0.283,2.051,0.691,3.083,0.804 c4.042,0.442,7.297-1.184,9.732-4.8c0.083-0.124,0.203-0.219,0.306-0.328c0.348-0.798,0.696-1.596,1.044-2.394 c0.155-1.211,0.429-2.423,0.443-3.632C90.742,60.508,89.411,57.54,87.234,55.551z"/><path fill="#fdfcef" d="M76.337,82.423c0,0,11.691,0,11.762,0c2.7,0,4.888-2.189,4.888-4.889 c0-2.355-1.666-4.321-3.884-4.784c0.026-0.206,0.043-0.415,0.043-0.628c0-2.796-2.267-5.063-5.063-5.063 c-1.651,0-3.113,0.794-4.037,2.017c-0.236-3.113-3.017-5.514-6.27-5.116c-2.379,0.291-4.346,2.13-4.784,4.486 c-0.14,0.756-0.126,1.489,0.014,2.177c-0.638-0.687-1.546-1.119-2.557-1.119c-1.85,0-3.361,1.441-3.48,3.261 c-0.84-0.186-1.754-0.174-2.717,0.188c-1.84,0.691-3.15,2.423-3.227,4.387c-0.109,2.789,2.12,5.085,4.885,5.085 c0.21,0,0.948,0,1.118,0h10.151"/><path fill="#472b29" d="M88.099,82.923H76.337c-0.276,0-0.5-0.224-0.5-0.5s0.224-0.5,0.5-0.5h11.762 c2.42,0,4.389-1.969,4.389-4.389c0-2.066-1.466-3.873-3.486-4.295c-0.255-0.053-0.426-0.293-0.394-0.552 c0.023-0.186,0.039-0.374,0.039-0.565c0-2.517-2.047-4.563-4.562-4.563c-1.438,0-2.765,0.663-3.638,1.818 c-0.125,0.166-0.338,0.237-0.54,0.178c-0.199-0.059-0.342-0.234-0.357-0.441c-0.104-1.377-0.779-2.671-1.85-3.549 c-1.083-0.888-2.456-1.282-3.86-1.109c-2.166,0.266-3.956,1.943-4.353,4.081c-0.124,0.667-0.12,1.335,0.013,1.986 c0.044,0.22-0.062,0.442-0.262,0.544c-0.2,0.104-0.443,0.06-0.595-0.104c-0.575-0.618-1.353-0.959-2.19-0.959 c-1.569,0-2.878,1.228-2.981,2.794c-0.01,0.146-0.082,0.279-0.199,0.366c-0.117,0.089-0.268,0.12-0.408,0.089 c-0.841-0.185-1.637-0.132-2.433,0.167c-1.669,0.627-2.835,2.209-2.903,3.938c-0.047,1.207,0.387,2.35,1.221,3.218 c0.835,0.869,1.959,1.348,3.164,1.348h11.269c0.276,0,0.5,0.224,0.5,0.5s-0.224,0.5-0.5,0.5H61.912 c-1.479,0-2.858-0.588-3.884-1.654c-1.025-1.066-1.558-2.469-1.5-3.95c0.083-2.126,1.51-4.069,3.55-4.835 c0.8-0.301,1.626-0.398,2.468-0.299c0.377-1.822,1.998-3.182,3.905-3.182c0.684,0,1.354,0.18,1.944,0.51 c0-0.386,0.035-0.772,0.106-1.159c0.477-2.562,2.621-4.573,5.215-4.891c1.679-0.205,3.32,0.266,4.616,1.328 c1.003,0.823,1.716,1.951,2.038,3.193c1.012-0.916,2.319-1.426,3.714-1.426c3.067,0,5.562,2.496,5.562,5.563 c0,0.083-0.002,0.166-0.007,0.248c2.254,0.673,3.848,2.776,3.848,5.164C93.488,80.507,91.071,82.923,88.099,82.923z"/><path fill="#fdfcef" d="M73.504,71.655c-1.808-0.119-3.365,1.13-3.476,2.789c-0.014,0.206-0.005,0.409,0.025,0.606 c-0.349-0.394-0.865-0.661-1.458-0.7c-1.085-0.071-2.022,0.645-2.158,1.62c-0.197-0.054-0.403-0.09-0.616-0.104 c-1.582-0.104-2.944,0.989-3.042,2.441"/><path fill="#472b29" d="M62.78,78.556c-0.006,0-0.012,0-0.017-0.001c-0.138-0.009-0.242-0.128-0.233-0.266 c0.107-1.587,1.588-2.789,3.308-2.674c0.137,0.009,0.273,0.026,0.409,0.053c0.274-0.968,1.256-1.645,2.366-1.567 c0.425,0.027,0.823,0.159,1.164,0.382c0-0.019,0.002-0.037,0.003-0.056c0.12-1.795,1.787-3.16,3.742-3.021 c0.138,0.009,0.242,0.128,0.233,0.266c-0.009,0.138-0.124,0.255-0.266,0.232c-1.651-0.105-3.108,1.037-3.21,2.557 c-0.012,0.184-0.004,0.37,0.023,0.553c0.017,0.109-0.041,0.217-0.141,0.264c-0.1,0.047-0.219,0.022-0.293-0.061 c-0.323-0.365-0.78-0.584-1.287-0.617c-0.951-0.034-1.775,0.556-1.894,1.404c-0.01,0.071-0.05,0.135-0.11,0.175 c-0.06,0.039-0.133,0.051-0.204,0.032c-0.187-0.051-0.377-0.083-0.567-0.097c-1.44-0.092-2.687,0.896-2.775,2.209 C63.02,78.455,62.91,78.556,62.78,78.556z"/><path fill="#fdfcef" d="M90.079,73.323c-1.699-0.801-3.664-0.234-4.389,1.267c-0.09,0.186-0.157,0.379-0.201,0.574"/><path fill="#472b29" d="M85.489,75.414c-0.018,0-0.037-0.002-0.056-0.006c-0.134-0.031-0.219-0.165-0.188-0.3 c0.049-0.217,0.123-0.428,0.219-0.627c0.783-1.621,2.902-2.239,4.721-1.385c0.125,0.06,0.179,0.208,0.12,0.333 c-0.059,0.126-0.209,0.176-0.333,0.12c-1.574-0.744-3.394-0.227-4.058,1.149c-0.08,0.165-0.141,0.34-0.182,0.521 C85.706,75.336,85.603,75.414,85.489,75.414z"/><path fill="#fff" d="M32.899 74h-10.03c-.276 0-.5-.224-.5-.5s.224-.5.5-.5h10.03c.276 0 .5.224.5.5S33.176 74 32.899 74zM36.28 73.5c0-.276-.224-.5-.5-.5h-1.446c-.276 0-.5.224-.5.5s.224.5.5.5h1.446C36.057 74 36.28 73.776 36.28 73.5zM40.335 73.5c0-.276-.224-.5-.5-.5h-2.546c-.276 0-.5.224-.5.5s.224.5.5.5h2.546C40.112 74 40.335 73.776 40.335 73.5zM40.335 75.5c0-.276-.224-.5-.5-.5h-9.616c-.276 0-.5.224-.5.5s.224.5.5.5h9.616C40.112 76 40.335 75.776 40.335 75.5zM28.987 75.5c0-.276-.224-.5-.5-.5h-.58c-.276 0-.5.224-.5.5s.224.5.5.5h.58C28.763 76 28.987 75.776 28.987 75.5zM26.611 75.5c0-.276-.224-.5-.5-.5h-1.457c-.276 0-.5.224-.5.5s.224.5.5.5h1.457C26.387 76 26.611 75.776 26.611 75.5zM35.746 71.5c0-.276-.224-.5-.5-.5h-5.027c-.276 0-.5.224-.5.5s.224.5.5.5h5.027C35.523 72 35.746 71.776 35.746 71.5zM35.746 69.5c0-.276-.224-.5-.5-.5h-1.257c-.276 0-.5.224-.5.5s.224.5.5.5h1.257C35.523 70 35.746 69.776 35.746 69.5zM32.477 77.5c0-.276-.224-.5-.5-.5h-1.758c-.276 0-.5.224-.5.5s.224.5.5.5h1.758C32.254 78 32.477 77.776 32.477 77.5zM70.744 26h-10.03c-.276 0-.5-.224-.5-.5s.224-.5.5-.5h10.031c.276 0 .5.224.5.5S71.021 26 70.744 26zM74.125 25.5c0-.276-.224-.5-.5-.5h-1.446c-.276 0-.5.224-.5.5s.224.5.5.5h1.446C73.902 26 74.125 25.776 74.125 25.5zM78.18 25.5c0-.276-.224-.5-.5-.5h-2.546c-.276 0-.5.224-.5.5s.224.5.5.5h2.546C77.956 26 78.18 25.776 78.18 25.5zM76.154 21.5c0-.276-.224-.5-.5-.5h-9.616c-.276 0-.5.224-.5.5s.224.5.5.5h9.616C75.93 22 76.154 21.776 76.154 21.5zM64.806 21.5c0-.276-.224-.5-.5-.5h-.58c-.276 0-.5.224-.5.5s.224.5.5.5h.58C64.583 22 64.806 21.776 64.806 21.5zM62.429 21.5c0-.276-.224-.5-.5-.5h-1.456c-.276 0-.5.224-.5.5s.224.5.5.5h1.456C62.206 22 62.429 21.776 62.429 21.5zM73.591 23.5c0-.276-.224-.5-.5-.5h-5.027c-.276 0-.5.224-.5.5s.224.5.5.5h5.027C73.367 24 73.591 23.776 73.591 23.5zM73.591 21.5c0-.276-.224-.5-.5-.5h-1.257c-.276 0-.5.224-.5.5s.224.5.5.5h1.257C73.367 22 73.591 21.776 73.591 21.5zM67.108 23.5c0-.276-.224-.5-.5-.5H64.85c-.276 0-.5.224-.5.5s.224.5.5.5h1.758C66.885 24 67.108 23.776 67.108 23.5z"/><g><path fill="#f5ce85" d="M24,35.471l20.648,1.33c0,0,3.294-0.57,6.144,2.28c2.85,2.85,16.151,17.671,16.151,17.671 s0.823,2.533-0.697,3.737s-3.42,0.253-3.42,0.253s0.697,2.027-0.19,3.167c-0.887,1.14-2.28,1.583-3.42,1.393 s-0.253,2.28-0.95,3.04s-2.28,1.52-3.294,1.203c-1.013-0.317-0.19,1.647-0.95,2.343c-0.76,0.697-2.217,1.393-3.23,0.57 c-1.013-0.823-16.784-18.938-16.784-18.938l-9.817,0.063L24,35.471z"/><path fill="#ffc49c" d="M75.683,35.281l-21.471,1.583l-1.837,0.633l-9.881,9.564l-0.253,1.583l3.674,2.47l2.914-0.063 l2.66-1.267l4.687-4.56l11.401,12.097c0,0,2.787-0.95,3.737-3.357C73.023,54.029,76,53.839,76,53.839L75.683,35.281z"/><path fill="#472b29" d="M47.278,51.939c-2.656,0-4.355-1.806-5.026-2.518l-0.167-0.176 c-0.869-0.869-0.293-2.201,0.184-2.852c0.024-0.032,0.05-0.063,0.08-0.091c0.355-0.342,8.716-8.377,9.478-9.055 c0.945-0.839,1.746-1.19,4.266-1.19c2.395,0,18.867-1.252,19.033-1.265c0.383-0.021,0.722,0.259,0.751,0.646 c0.03,0.385-0.259,0.722-0.645,0.751c-0.681,0.052-16.691,1.269-19.139,1.269c-2.394,0-2.769,0.333-3.335,0.837 c-0.711,0.633-8.688,8.297-9.389,8.971c-0.24,0.354-0.419,0.862-0.292,0.989l0.197,0.206c0.872,0.927,2.914,3.097,6.362,1.511 c3.962-1.823,5.988-5.566,6.008-5.604c0.13-0.244,0.389-0.386,0.668-0.369l4.729,0.338c0.386,0.027,0.676,0.362,0.648,0.748 c-0.028,0.386-0.357,0.658-0.748,0.648l-4.294-0.307c-0.674,1.097-2.794,4.146-6.426,5.817 C49.136,51.742,48.155,51.939,47.278,51.939z"/><path fill="#472b29" d="M51.966 73.325c-.125 0-.249-.007-.373-.021-.708-.083-1.335-.414-1.719-.906L34.069 54.265h-9.224c-.387 0-.7-.313-.7-.7s.313-.7.7-.7h9.542c.202 0 .395.088.528.24l16.038 18.402c.178.227.469.367.803.406.299.035.902.021 1.533-.485.767-.614.457-1.482.061-2.103-.184-.288-.133-.666.12-.896.252-.229.634-.243.902-.032.933.733 2.265.659 3.099-.173.832-.832.906-2.164.172-3.099-.219-.278-.195-.676.056-.927.251-.251.648-.272.927-.056.935.733 2.267.66 3.098-.173.832-.832.907-2.164.173-3.098-.219-.278-.195-.677.055-.928.25-.25.649-.273.927-.056.935.733 2.267.66 3.098-.173.915-.914.915-2.402 0-3.316L55.679 46.035c-.272-.274-.271-.717.003-.989.274-.272.718-.271.99.003L66.97 55.412c.704.703 1.092 1.644 1.092 2.646s-.388 1.943-1.093 2.648c-.866.865-2.068 1.214-3.212 1.042.178 1.144-.176 2.346-1.042 3.212-.866.865-2.066 1.217-3.212 1.042.179 1.145-.176 2.347-1.042 3.212-.891.891-2.139 1.243-3.316 1.023.084.887-.247 1.695-.98 2.283C53.507 73.046 52.739 73.325 51.966 73.325zM50.517 39.992c-.172 0-.345-.063-.48-.191-1.203-1.137-2.831-2.187-6.513-2.089-3.643.068-18.618-1.378-19.254-1.439-.385-.037-.666-.38-.628-.765.038-.385.376-.674.765-.628.154.016 15.563 1.54 19.085 1.432 3.38-.081 5.565.638 7.506 2.472.281.266.294.708.028.989C50.888 39.918 50.703 39.992 50.517 39.992z"/><path fill="#ffc49c" d="M47.878,66.886c-0.009,0-0.017,0.003-0.026,0.003c0.007-0.086,0.026-0.168,0.026-0.256 c0-1.819-1.475-3.294-3.294-3.294c-0.314,0-0.612,0.058-0.9,0.14c0.082-0.288,0.14-0.586,0.14-0.9 c0-1.819-1.475-3.294-3.294-3.294c-0.37,0-0.719,0.075-1.051,0.187c0.186-0.448,0.291-0.938,0.291-1.454 c0-2.099-1.701-3.8-3.8-3.8s-3.8,1.701-3.8,3.8c0,2.099,1.701,3.8,3.8,3.8c0.515,0,1.006-0.105,1.454-0.291 c-0.112,0.332-0.187,0.681-0.187,1.051c0,1.819,1.475,3.294,3.294,3.294c0.314,0,0.612-0.058,0.9-0.14 c-0.082,0.288-0.14,0.586-0.14,0.9c0,1.819,1.475,3.294,3.294,3.294c0.088,0,0.17-0.019,0.256-0.026 c0,0.009-0.003,0.017-0.003,0.026c0,1.679,1.361,3.04,3.04,3.04c1.679,0,3.04-1.361,3.04-3.04S49.557,66.886,47.878,66.886z"/><path fill="#472b29" d="M47.878 73.667c-1.83 0-3.357-1.32-3.678-3.059-2.022-.194-3.609-1.903-3.609-3.976 0-.021 0-.04.001-.061-.021.001-.041.001-.061.001-2.202 0-3.994-1.792-3.994-3.994 0-.032 0-.063.001-.096-.188.024-.377.036-.568.036-2.481 0-4.5-2.02-4.5-4.501s2.019-4.5 4.5-4.5 4.5 2.019 4.5 4.5c0 .191-.012.381-.036.569 2.221-.062 4.09 1.757 4.09 3.991 0 .021 0 .041-.001.062.021-.001.041-.001.061-.001 2.073 0 3.782 1.587 3.976 3.609 1.738.321 3.059 1.849 3.059 3.678C51.619 71.989 49.941 73.667 47.878 73.667zM45.584 69.14l-.044.8c-.001 1.277 1.048 2.327 2.339 2.327s2.34-1.05 2.34-2.34-1.049-2.34-2.34-2.34v-.004h-.69l-.034-.75.016-.14c.007-1.49-1.156-2.653-2.586-2.653-.213 0-.438.036-.708.112l-1.212.346.347-1.211c.078-.271.113-.496.113-.708 0-1.43-1.163-2.593-2.593-2.593-.259 0-.529.049-.826.149l-1.209.409-.408 1.208c-.102.299-.15.569-.15.826 0 1.431 1.164 2.594 2.594 2.594.21 0 .436-.036.708-.113l1.212-.346-.347 1.211c-.077.271-.113.496-.113.708 0 1.431 1.163 2.594 2.593 2.594L45.584 69.14zM35.971 54.919c-1.709 0-3.1 1.391-3.1 3.1 0 1.71 1.391 3.101 3.1 3.101.408 0 .807-.08 1.185-.237l1.188-.494.489-1.183c.158-.381.237-.779.237-1.187C39.071 56.31 37.68 54.919 35.971 54.919zM67.238 58.149c-.315 0-.602-.215-.68-.534-.091-.376.138-.754.513-.846.125-.032 2.77-.729 3.641-3.343l.16-.479h4.558c.387 0 .7.313.7.7s-.313.7-.7.7h-3.571c-1.266 2.972-4.32 3.748-4.456 3.78C67.348 58.143 67.292 58.149 67.238 58.149zM63.185 61.696c-.175 0-.35-.065-.485-.196l-4.56-4.392c-.279-.268-.287-.711-.019-.989.27-.278.711-.287.99-.019l4.56 4.392c.279.268.287.711.019.989C63.551 61.624 63.368 61.696 63.185 61.696zM58.772 65.961c-.175 0-.35-.065-.485-.196l-4.561-4.392c-.279-.268-.287-.711-.019-.989.269-.278.712-.287.99-.019l4.561 4.392c.279.268.287.711.019.989C59.139 65.889 58.956 65.961 58.772 65.961zM54.554 70.183c-.197 0-.394-.083-.532-.244l-3.346-3.903c-.252-.294-.218-.736.076-.987.293-.252.736-.218.987.075l3.346 3.903c.252.294.218.736-.076.987C54.877 70.127 54.715 70.183 54.554 70.183z"/><g><path fill="#472b29" d="M71.544,54.365c-0.002,0-0.004,0-0.007,0c-0.387-0.004-0.697-0.32-0.693-0.707l0.057-5.865 c0.004-0.384,0.316-0.693,0.7-0.693c0.002,0,0.004,0,0.007,0c0.387,0.004,0.697,0.32,0.693,0.707l-0.057,5.865 C72.24,54.056,71.928,54.365,71.544,54.365z"/></g></g><g><path fill="#fdfcef" d="M36.178,30.287c1.883,0,3.517,0,3.54,0c2.11,0,3.821-1.674,3.821-3.739 c0-1.802-1.302-3.305-3.035-3.66c0.02-0.158,0.034-0.317,0.034-0.48c0-2.139-1.772-3.873-3.957-3.873 c-1.29,0-2.433,0.607-3.155,1.543c-0.185-2.381-2.358-4.218-4.9-3.913c-1.859,0.223-3.397,1.629-3.739,3.431 c-0.11,0.578-0.098,1.139,0.011,1.665c-0.498-0.525-1.208-0.856-1.998-0.856c-1.446,0-2.627,1.102-2.72,2.494 c-0.657-0.142-1.371-0.133-2.123,0.143c-1.438,0.528-2.462,1.853-2.522,3.356c-0.085,2.133,1.657,3.889,3.818,3.889 c0.164,0,0.741,0,0.874,0h7.934 M29.701,30.287h0.36"/><path fill="#472b29" d="M39.718,30.788h-3.54c-0.276,0-0.5-0.224-0.5-0.5s0.224-0.5,0.5-0.5h3.54 c1.831,0,3.321-1.453,3.321-3.239c0-1.524-1.108-2.858-2.636-3.17c-0.256-0.053-0.429-0.294-0.396-0.554 c0.018-0.137,0.03-0.275,0.03-0.417c0-1.86-1.551-3.373-3.457-3.373c-1.092,0-2.098,0.491-2.76,1.349 c-0.126,0.164-0.341,0.231-0.539,0.174c-0.198-0.06-0.339-0.234-0.355-0.44c-0.079-1.02-0.565-1.944-1.369-2.604 c-0.829-0.68-1.885-0.979-2.973-0.853c-1.646,0.197-3.006,1.442-3.307,3.027c-0.094,0.495-0.091,0.99,0.009,1.472 c0.045,0.219-0.06,0.441-0.258,0.545c-0.197,0.102-0.44,0.063-0.594-0.1c-0.428-0.451-1.009-0.7-1.635-0.7 c-1.169,0-2.145,0.891-2.221,2.027c-0.01,0.146-0.082,0.278-0.198,0.366c-0.116,0.087-0.264,0.12-0.406,0.089 c-0.639-0.138-1.243-0.098-1.846,0.125c-1.262,0.463-2.144,1.631-2.195,2.905c-0.035,0.876,0.283,1.709,0.895,2.346 c0.635,0.66,1.496,1.024,2.423,1.024h8.807c0.276,0,0.5,0.224,0.5,0.5s-0.224,0.5-0.5,0.5h-8.807 c-1.185,0-2.331-0.485-3.144-1.331c-0.803-0.836-1.219-1.929-1.173-3.078c0.067-1.675,1.212-3.204,2.849-3.806 c0.61-0.225,1.24-0.304,1.88-0.244c0.344-1.396,1.629-2.424,3.135-2.424c0.493,0,0.977,0.113,1.414,0.323 c0.009-0.242,0.037-0.484,0.083-0.727c0.381-2.009,2.096-3.585,4.17-3.833c1.365-0.167,2.685,0.218,3.726,1.071 c0.748,0.613,1.278,1.409,1.546,2.302c0.791-0.648,1.786-1.007,2.842-1.007c2.458,0,4.457,1.962,4.457,4.373 c0,0.034,0,0.068-0.001,0.103c1.764,0.555,3.003,2.188,3.003,4.038C44.039,28.886,42.101,30.788,39.718,30.788z M30.061,30.788 h-0.36c-0.276,0-0.5-0.224-0.5-0.5s0.224-0.5,0.5-0.5h0.36c0.276,0,0.5,0.224,0.5,0.5S30.337,30.788,30.061,30.788z"/><g><path fill="#472b29" d="M38.011,24.984c-0.018,0-0.036-0.002-0.055-0.006c-0.135-0.03-0.22-0.164-0.189-0.299 c0.037-0.164,0.094-0.325,0.17-0.479c0.604-1.224,2.272-1.677,3.722-1.007c0.125,0.058,0.18,0.206,0.122,0.331 c-0.058,0.126-0.207,0.179-0.332,0.122c-1.201-0.556-2.577-0.208-3.063,0.774c-0.058,0.118-0.102,0.242-0.13,0.367 C38.229,24.905,38.126,24.984,38.011,24.984z"/></g><g><path fill="#472b29" d="M32.852,30.788h-1.107c-0.276,0-0.5-0.224-0.5-0.5s0.224-0.5,0.5-0.5h1.107 c0.276,0,0.5,0.224,0.5,0.5S33.129,30.788,32.852,30.788z"/></g></g><g><path fill="#472b29" d="M50.51,62.034c-0.128,0-0.256-0.049-0.354-0.146l-1.319-1.318c-0.195-0.195-0.195-0.512,0-0.707 s0.512-0.195,0.707,0l1.319,1.318c0.195,0.195,0.195,0.512,0,0.707C50.766,61.985,50.638,62.034,50.51,62.034z"/></g><g><path fill="#472b29" d="M54.702,57.644c-0.128,0-0.256-0.049-0.354-0.146l-1.319-1.319c-0.195-0.195-0.195-0.512,0-0.707 s0.512-0.195,0.707,0l1.319,1.319c0.195,0.195,0.195,0.512,0,0.707C54.958,57.595,54.83,57.644,54.702,57.644z"/></g><g><path fill="#472b29" d="M58.894,53.252c-0.128,0-0.256-0.049-0.354-0.146l-1.319-1.318c-0.195-0.195-0.195-0.512,0-0.707 s0.512-0.195,0.707,0l1.319,1.318c0.195,0.195,0.195,0.512,0,0.707C59.149,53.203,59.021,53.252,58.894,53.252z"/></g></svg>