<svg xmlns="http://www.w3.org/2000/svg"  viewBox="0 0 100 100" width="100px" height="100px"><path fill="#c7ede6" d="M87.215,56.71C88.35,54.555,89,52.105,89,49.5c0-6.621-4.159-12.257-10.001-14.478 C78.999,35.015,79,35.008,79,35c0-11.598-9.402-21-21-21c-9.784,0-17.981,6.701-20.313,15.757C36.211,29.272,34.638,29,33,29 c-7.692,0-14.023,5.793-14.89,13.252C12.906,43.353,9,47.969,9,53.5C9,59.851,14.149,65,20.5,65c0.177,0,0.352-0.012,0.526-0.022 C21.022,65.153,21,65.324,21,65.5C21,76.822,30.178,86,41.5,86c6.437,0,12.175-2.972,15.934-7.614C59.612,80.611,62.64,82,66,82 c4.65,0,8.674-2.65,10.666-6.518C77.718,75.817,78.837,76,80,76c6.075,0,11-4.925,11-11C91,61.689,89.53,58.727,87.215,56.71z"/><path fill="#fdfcef" d="M70,47h-5.75c-2.485,0.75-4.5-1.265-4.5-3.75c0-2.333,1.782-4.229,4.055-4.455 c-0.022-0.181-0.055-0.358-0.055-0.545c0-2.485,2.015-4.5,4.5-4.5c1.438,0,2.703,0.686,3.527,1.736 c0.14-2.636,2.302-4.736,4.973-4.736c2.761,0,5,2.239,5,5c0,0.446-0.077,0.87-0.187,1.282c0.642-0.777,1.6-1.282,2.687-1.282 c1.781,0,3.234,1.335,3.455,3.055c0.181-0.022,0.358-0.055,0.545-0.055c2.485,0,4.5,2.015,4.5,4.5s-2.015,4.5-4.5,3.75h-9.5H73v1 h-3V47z"/><path fill="#472b29" d="M76.5,30c3.033,0,5.5,2.467,5.5,5.5c0,0.016,0,0.031,0,0.047C82.602,35.192,83.29,35,84,35 c1.831,0,3.411,1.261,3.858,3.005C87.905,38.002,87.952,38,88,38c3.099,0,5.549,2.834,4.893,6.047 C92.413,46.398,90.204,48,87.804,48l-14.679,0c-0.276,0-0.5-0.224-0.5-0.5s0.224-0.5,0.5-0.5l14.718,0 c1.92,0,3.687-1.282,4.071-3.163C92.439,41.267,90.479,39,88,39c-0.117,0-0.23,0.017-0.343,0.032l-0.141,0.019 c-0.021,0.003-0.041,0.004-0.062,0.004c-0.246,0-0.462-0.185-0.495-0.437C86.768,37.125,85.496,36,84,36 c-0.885,0-1.723,0.401-2.301,1.1c-0.098,0.118-0.241,0.182-0.386,0.182c-0.078,0-0.156-0.018-0.228-0.056 c-0.209-0.107-0.314-0.346-0.254-0.573c0.16-0.6,0.202-1.069,0.147-1.549c-0.24-2.127-1.959-3.909-4.092-4.088 c-2.551-0.215-4.725,1.728-4.859,4.246c-0.011,0.208-0.15,0.387-0.349,0.45c-0.05,0.016-0.101,0.024-0.152,0.024 c-0.15,0-0.296-0.069-0.392-0.192C70.362,34.563,69.221,34,68,34c-2.206,0-4,1.794-4,4c0,0.117,0.017,0.23,0.032,0.343 l0.019,0.141c0.016,0.134-0.022,0.268-0.106,0.373c-0.084,0.105-0.207,0.172-0.34,0.185c-2.352,0.234-4.042,2.429-3.504,4.865 C60.509,45.76,62.275,47,64.173,47l5.952,0c0.276,0,0.5,0.224,0.5,0.5s-0.224,0.5-0.5,0.5l-5.938,0 c-2.467,0-4.708-1.704-5.115-4.138c-0.462-2.763,1.344-5.22,3.931-5.74C63.001,38.082,63,38.041,63,38c0-2.757,2.243-5,5-5 c1.176,0,2.293,0.416,3.183,1.164C71.781,31.76,73.945,30,76.5,30L76.5,30z"/><path fill="#472b29" d="M78.25 37.25c1.403 0 2.609.999 2.913 2.341.367-.222.786-.341 1.212-.341 1.202 0 2.198.897 2.353 2.068.203-.045.396-.068.585-.068 1.529 0 2.811 1.2 2.918 2.732.009.138-.094.257-.232.267-.006 0-.012 0-.018 0-.13 0-.24-.101-.249-.232-.089-1.271-1.151-2.268-2.419-2.268-.229 0-.47.042-.738.127-.022.007-.045.01-.067.01-.055 0-.11-.02-.156-.054-.064-.047-.102-.129-.102-.209 0-1.034-.841-1.875-1.875-1.875-.447 0-.885.168-1.231.473-.047.041-.106.063-.165.063-.032 0-.063-.006-.093-.019-.088-.035-.148-.117-.155-.212-.102-1.292-1.191-2.305-2.479-2.305-.208 0-.425.034-.682.107-.023.007-.047.01-.07.01-.109 0-.207-.073-.239-.182-.038-.133.039-.271.172-.309C77.733 37.29 77.994 37.25 78.25 37.25L78.25 37.25zM64.367 38.75c1.326 0 2.508.897 2.874 2.182.038.133-.039.271-.172.309-.023.007-.046.01-.068.01-.109 0-.209-.072-.24-.182-.305-1.071-1.289-1.818-2.393-1.818-.117 0-.23.014-.342.029-.012.002-.023.003-.035.003-.121 0-.229-.092-.246-.217-.019-.137.077-.263.214-.281C64.092 38.766 64.228 38.75 64.367 38.75L64.367 38.75z"/><path fill="#fff" d="M17.405 49H7.5C7.224 49 7 48.776 7 48.5S7.224 48 7.5 48h9.905c.276 0 .5.224.5.5S17.682 49 17.405 49zM20.5 49h-1c-.276 0-.5-.224-.5-.5s.224-.5.5-.5h1c.276 0 .5.224.5.5S20.777 49 20.5 49zM25.491 51H16.5c-.276 0-.5-.224-.5-.5s.224-.5.5-.5h8.991c.276 0 .5.224.5.5S25.767 51 25.491 51zM14.5 51h-1c-.276 0-.5-.224-.5-.5s.224-.5.5-.5h1c.276 0 .5.224.5.5S14.777 51 14.5 51zM11.5 51h-2C9.224 51 9 50.776 9 50.5S9.224 50 9.5 50h2c.276 0 .5.224.5.5S11.777 51 11.5 51zM17.5 53h-2c-.276 0-.5-.224-.5-.5s.224-.5.5-.5h2c.276 0 .5.224.5.5S17.776 53 17.5 53zM20.5 44c-.177 0-.823 0-1 0-.276 0-.5.224-.5.5 0 .276.224.5.5.5.177 0 .823 0 1 0 .276 0 .5-.224.5-.5C21 44.224 20.776 44 20.5 44zM20.5 46c-.177 0-4.823 0-5 0-.276 0-.5.224-.5.5 0 .276.224.5.5.5.177 0 4.823 0 5 0 .276 0 .5-.224.5-.5C21 46.224 20.776 46 20.5 46zM25.5 48c-.177 0-2.823 0-3 0-.276 0-.5.224-.5.5 0 .276.224.5.5.5.177 0 2.823 0 3 0 .276 0 .5-.224.5-.5C26 48.224 25.776 48 25.5 48zM87 65H77c-.276 0-.5-.224-.5-.5S76.724 64 77 64h10c.276 0 .5.224.5.5S87.276 65 87 65zM91 65h-2c-.276 0-.5-.224-.5-.5S88.724 64 89 64h2c.276 0 .5.224.5.5S91.276 65 91 65zM96 67H86c-.276 0-.5-.224-.5-.5S85.724 66 86 66h10c.276 0 .5.224.5.5S96.277 67 96 67zM84 67h-1c-.276 0-.5-.224-.5-.5S82.724 66 83 66h1c.276 0 .5.224.5.5S84.276 67 84 67zM80.875 67H79c-.276 0-.5-.224-.5-.5S78.724 66 79 66h1.875c.276 0 .5.224.5.5S81.151 67 80.875 67zM90 63h-5c-.276 0-.5-.224-.5-.5S84.724 62 85 62h5c.276 0 .5.224.5.5S90.277 63 90 63zM87 69h-2c-.276 0-.5-.224-.5-.5S84.724 68 85 68h2c.276 0 .5.224.5.5S87.276 69 87 69z"/><g><path fill="#edf7f5" d="M39.727,78.3c-2.771,0-5.026-2.215-5.026-4.938V33.638c0-2.723,2.255-4.938,5.026-4.938h20.709 L73.3,41.364v31.998c0,2.723-2.255,4.938-5.026,4.938H39.727z"/><path fill="#472b29" d="M60.149,29.4l6.339,6.241l6.112,6.017v31.705c0,2.336-1.941,4.237-4.326,4.237H39.726 c-2.386,0-4.326-1.901-4.326-4.237V33.637c0-2.336,1.941-4.237,4.326-4.237h0.832h7.869H60.149 M60.723,28H48.427h-7.869h-0.832 C36.577,28,34,30.536,34,33.637v39.726c0,3.1,2.577,5.637,5.726,5.637h28.547C71.423,79,74,76.464,74,73.363V41.071 C68.836,35.988,65.886,33.083,60.723,28L60.723,28z"/></g><g><path fill="#85cfcc" d="M60.5,29v8.202c0,2.914,2.396,5.298,5.325,5.298H74"/><path fill="#472b29" d="M74,43h-8.175C62.613,43,60,40.399,60,37.202V29h1v8.202C61,39.848,63.165,42,65.825,42H74V43z"/></g><g><path fill="#472b29" d="M50.5,32.75h-6c-0.138,0-0.25-0.112-0.25-0.25s0.112-0.25,0.25-0.25h6c0.138,0,0.25,0.112,0.25,0.25 S50.638,32.75,50.5,32.75z"/></g><g><path fill="#472b29" d="M66.781,74.75H41.219c-1.637,0-2.969-1.332-2.969-2.969V35.219c0-1.637,1.332-2.969,2.969-2.969 H42.5c0.138,0,0.25,0.112,0.25,0.25s-0.112,0.25-0.25,0.25h-1.281c-1.361,0-2.469,1.107-2.469,2.469v36.563 c0,1.361,1.107,2.469,2.469,2.469h25.563c1.361,0,2.469-1.107,2.469-2.469V60.5c0-0.138,0.112-0.25,0.25-0.25s0.25,0.112,0.25,0.25 v11.281C69.75,73.418,68.418,74.75,66.781,74.75z"/></g><g><path fill="#472b29" d="M69.5,58.75c-0.138,0-0.25-0.112-0.25-0.25v-5c0-0.138,0.112-0.25,0.25-0.25s0.25,0.112,0.25,0.25v5 C69.75,58.638,69.638,58.75,69.5,58.75z"/></g><g><path fill="#472b29" d="M69.5,51.333c-0.138,0-0.25-0.112-0.25-0.25v-2.25c0-0.138,0.112-0.25,0.25-0.25 s0.25,0.112,0.25,0.25v2.25C69.75,51.221,69.638,51.333,69.5,51.333z"/></g><g><path fill="#fdfcef" d="M27.25,82.5c0,0-1.567,0-3.5,0s-3.5-1.567-3.5-3.5c0-1.781,1.335-3.234,3.055-3.455 C23.277,75.366,23.25,75.187,23.25,75c0-1.933,1.567-3.5,3.5-3.5c1.032,0,1.95,0.455,2.59,1.165 c0.384-1.808,1.987-3.165,3.91-3.165c2.209,0,4,1.791,4,4c0,0.191-0.03,0.374-0.056,0.558c0.428-0.344,0.965-0.558,1.556-0.558 c1.228,0,2.245,0.887,2.455,2.055c0.179-0.028,0.358-0.055,0.545-0.055c1.933,0,3.5,1.567,3.5,3.5s-1.567,3.5-3.5,3.5 s-7.5,0-7.5,0V83h-7V82.5z"/><path fill="#472b29" d="M25.5 78c.138 0 .25-.112.25-.25 0-1.223-.995-2.218-2.218-2.218-.034.009-.737-.001-1.244.136-.133.036-.212.173-.176.306.036.134.173.213.306.176.444-.12 1.1-.12 1.113-.118.948 0 1.719.771 1.719 1.718C25.25 77.888 25.362 78 25.5 78zM32.25 82A.5.5 0 1 0 32.25 83 .5.5 0 1 0 32.25 82z"/><path fill="#472b29" d="M23.75,83h3.5c0.276,0,0.5-0.224,0.5-0.5s-0.224-0.5-0.5-0.5h-3.5c-1.654,0-3-1.346-3-3 c0-1.496,1.125-2.768,2.618-2.959c0.134-0.018,0.255-0.088,0.336-0.196s0.115-0.244,0.094-0.377 C23.775,75.314,23.75,75.16,23.75,75c0-1.654,1.346-3,3-3c0.85,0,1.638,0.355,2.219,1c0.125,0.139,0.321,0.198,0.5,0.148 c0.182-0.049,0.321-0.195,0.36-0.379C30.17,71.165,31.609,70,33.25,70c1.93,0,3.5,1.57,3.5,3.5c0,0.143-0.021,0.28-0.041,0.418 c-0.029,0.203,0.063,0.438,0.242,0.54c0.179,0.102,0.396,0.118,0.556-0.01C37.872,74.155,38.301,74,38.75,74 c0.966,0,1.792,0.691,1.963,1.644c0.048,0.267,0.296,0.446,0.569,0.405C41.436,76.025,41.59,76,41.75,76c1.654,0,3,1.346,3,3 s-1.346,3-3,3h-7.5c-0.276,0-0.5,0.224-0.5,0.5s0.224,0.5,0.5,0.5h7.5c2.206,0,4-1.794,4-4s-1.794-4-4-4 c-0.059,0-0.116,0.002-0.174,0.006C41.162,73.82,40.039,73,38.75,73c-0.349,0-0.689,0.061-1.011,0.18 C37.574,70.847,35.624,69,33.25,69c-1.831,0-3.466,1.127-4.153,2.774C28.417,71.276,27.595,71,26.75,71c-2.206,0-4,1.794-4,4 c0,0.048,0.001,0.095,0.004,0.142C21.011,75.59,19.75,77.169,19.75,79C19.75,81.206,21.544,83,23.75,83z"/><path fill="#472b29" d="M29.25,82c0.159,0,0.841,0,1,0c0.276,0,0.5,0.224,0.5,0.5c0,0.276-0.224,0.5-0.5,0.5 c-0.159,0-0.841,0-1,0c-0.276,0-0.5-0.224-0.5-0.5C28.75,82.224,28.974,82,29.25,82z"/></g><g><path fill="#472b29" d="M65.5,57.75h-23c-0.138,0-0.25-0.112-0.25-0.25s0.112-0.25,0.25-0.25h23 c0.138,0,0.25,0.112,0.25,0.25S65.638,57.75,65.5,57.75z"/></g><g><path fill="#472b29" d="M50.5,60.75h-8c-0.138,0-0.25-0.112-0.25-0.25s0.112-0.25,0.25-0.25h8c0.138,0,0.25,0.112,0.25,0.25 S50.638,60.75,50.5,60.75z"/></g><g><path fill="#472b29" d="M54.5,63.75h-12c-0.138,0-0.25-0.112-0.25-0.25s0.112-0.25,0.25-0.25h12 c0.138,0,0.25,0.112,0.25,0.25S54.638,63.75,54.5,63.75z"/></g><g><path fill="#472b29" d="M65.5,63.75h-8c-0.138,0-0.25-0.112-0.25-0.25s0.112-0.25,0.25-0.25h8c0.138,0,0.25,0.112,0.25,0.25 S65.638,63.75,65.5,63.75z"/></g><g><path fill="#472b29" d="M65.5,60.75h-13c-0.138,0-0.25-0.112-0.25-0.25s0.112-0.25,0.25-0.25h13 c0.138,0,0.25,0.112,0.25,0.25S65.638,60.75,65.5,60.75z"/></g><g><path fill="#472b29" d="M65.5,66.75h-23c-0.138,0-0.25-0.112-0.25-0.25s0.112-0.25,0.25-0.25h23 c0.138,0,0.25,0.112,0.25,0.25S65.638,66.75,65.5,66.75z"/></g><g><path fill="#472b29" d="M50.5,69.75h-8c-0.138,0-0.25-0.112-0.25-0.25s0.112-0.25,0.25-0.25h8c0.138,0,0.25,0.112,0.25,0.25 S50.638,69.75,50.5,69.75z"/></g><g><path fill="#472b29" d="M65.5,69.75h-13c-0.138,0-0.25-0.112-0.25-0.25s0.112-0.25,0.25-0.25h13 c0.138,0,0.25,0.112,0.25,0.25S65.638,69.75,65.5,69.75z"/></g><g><path fill="#fff" d="M42.5 36.5H56.5V53.5H42.5z"/><path fill="#472b29" d="M56.75,53.75h-14.5v-17.5h14.5V53.75z M42.75,53.25h13.5v-16.5h-13.5V53.25z"/><path fill="#fed5b3" d="M47.575 46.548H51.234V50.999H47.575z"/><path fill="#472b29" d="M51.484,51.249h-4.159v-4.951h4.159V51.249z M47.825,50.749h3.159v-3.951h-3.159V50.749z"/><path fill="#fae8e6" d="M53.011,43.681c0,2.247-1.61,5.586-3.595,5.586c-1.986,0-3.595-3.339-3.595-5.586 c0-2.247,1.588-3.7,3.574-3.7S53.011,41.435,53.011,43.681z"/><path fill="#472b29" d="M49.416,49.518c-2.194,0-3.846-3.54-3.846-5.836c0-2.289,1.607-3.95,3.823-3.95 c2.241,0,3.867,1.661,3.867,3.95C53.261,45.978,51.609,49.518,49.416,49.518z M49.394,40.231c-1.926,0-3.323,1.451-3.323,3.45 c0,2.107,1.499,5.336,3.346,5.336s3.345-3.229,3.345-5.336C52.761,41.683,51.345,40.231,49.394,40.231z"/><g><path fill="#d38b5d" d="M46.291,44.985c0,0-2.739-5.05,2.247-6.677c2.161-0.706,2.739,1.134,2.739,1.134 s1.455,0.021,1.883,1.113s0.621,2.761-0.171,4.13c-0.369-0.704-0.692-1.22-0.853-2.543c-1.387,0.419-4.049,0.044-5.162-1.032 L46.291,44.985z"/><path fill="#472b29" d="M46.413,45.734l-0.342-0.63c-0.055-0.102-1.338-2.509-0.499-4.611 c0.45-1.129,1.422-1.944,2.889-2.422c0.765-0.249,1.436-0.23,1.994,0.057c0.584,0.3,0.878,0.813,0.996,1.075 c0.431,0.044,1.547,0.253,1.941,1.262c0.455,1.157,0.646,2.907-0.187,4.346l-0.228,0.393l-0.301-0.571 c-0.314-0.594-0.59-1.112-0.751-2.178c-1.38,0.292-3.555-0.015-4.781-0.88L46.413,45.734z M52.349,41.817l0.036,0.295 c0.122,1.001,0.331,1.506,0.598,2.023c0.493-1.194,0.313-2.553-0.055-3.488c-0.362-0.926-1.642-0.955-1.654-0.955l-0.179-0.003 l-0.056-0.171c-0.002-0.007-0.213-0.641-0.818-0.949c-0.435-0.221-0.976-0.228-1.604-0.023c-1.318,0.43-2.186,1.146-2.579,2.13 c-0.487,1.222-0.149,2.61,0.152,3.443l0.619-3.516l0.339,0.327c1.025,0.991,3.604,1.369,4.917,0.973L52.349,41.817z"/></g><g><path fill="#ef5390" d="M53.332,51.284l-1.947-1.034c-0.918,0.693-2.898,0.651-3.788,0l-2.054,1.034 c-1.07,0.536-2.375,1.074-2.375,2.216v0H55.75v0C55.75,52.358,54.573,51.912,53.332,51.284z"/><path fill="#472b29" d="M56,53.75H42.917V53.5c0-1.204,1.193-1.79,2.245-2.307l2.459-1.235l0.123,0.09 c0.828,0.607,2.688,0.606,3.49,0.003l0.127-0.097l2.471,1.3C54.947,51.804,56,52.322,56,53.5V53.75z M43.444,53.25h12.031 c-0.134-0.661-0.818-1.032-1.864-1.548l-0.396-0.197l-1.813-0.963c-0.981,0.617-2.821,0.616-3.822-0.003l-2.196,1.103 C44.511,52.07,43.611,52.512,43.444,53.25z"/></g></g></svg>